<svg id="Coffee_Bean_-_No_Opacity" data-name="Coffee Bean - No Opacity" xmlns="http://www.w3.org/2000/svg" xmlns:xlink="http://www.w3.org/1999/xlink" width="22.241" height="22.256" viewBox="0 0 22.241 22.256">
  <defs>
    <clipPath id="clip-path">
      <rect id="Rectangle_1110" data-name="Rectangle 1110" width="22.241" height="22.256" fill="#eeece8"/>
    </clipPath>
  </defs>
  <g id="Group_18" data-name="Group 18" clip-path="url(#clip-path)">
    <path id="Path_238" data-name="Path 238" d="M42.354,65.807a6.591,6.591,0,0,0,1.486-3.49,10.706,10.706,0,0,0,.025-1.365A2.578,2.578,0,0,1,46.633,58.2a16.028,16.028,0,0,0,1.774.024A3.793,3.793,0,0,0,51.98,54.3a15.02,15.02,0,0,1,0-2,2.477,2.477,0,0,1,2.308-2.139,19.317,19.317,0,0,0,3.174-.2A6.807,6.807,0,0,0,60.1,48.925a7.581,7.581,0,0,1,.622,2.979,12.465,12.465,0,0,1-1.9,6.788,15.97,15.97,0,0,1-10.236,7.734A9.176,9.176,0,0,1,43,66.1c-.21-.083-.41-.188-.647-.3" transform="translate(-38.487 -44.458)" fill="#eeece8"/>
    <path id="Path_239" data-name="Path 239" d="M21.03,3.311a4.444,4.444,0,0,1-2.135.934,11.682,11.682,0,0,1-2.809.186A3.717,3.717,0,0,0,13.178,5.7a3.491,3.491,0,0,0-.945,2.261c-.025.652.006,1.306,0,1.959a2.54,2.54,0,0,1-2.623,2.616,17.22,17.22,0,0,0-2.276.023,3.782,3.782,0,0,0-3.207,3.747,7.742,7.742,0,0,1-.192,2.349,4.929,4.929,0,0,1-1.14,1.988,6,6,0,0,1-1.6-1.763A8.389,8.389,0,0,1,.155,12.873a16.116,16.116,0,0,1,12-12.588,8.8,8.8,0,0,1,6.692.873A6.5,6.5,0,0,1,21.03,3.311" transform="translate(0 0)" fill="#eeece8"/>
  </g>
</svg>
