<svg id="WWC_-_Logo_Variation_-_Horizontal" data-name="WWC - Logo Variation - Horizontal" xmlns="http://www.w3.org/2000/svg" width="275.18" height="105.044" viewBox="0 0 275.18 105.044">
  <path id="Path_198" data-name="Path 198" d="M139.2,48.66l.238.059a49.9,49.9,0,0,1,8.092.923,49.049,49.049,0,0,1,24.244,12.673,49.124,49.124,0,0,1,12.682,19.918,45.557,45.557,0,0,1,2.084,8.779c.212,1.626.355,3.262.464,4.9a41.171,41.171,0,0,1-.062,5.855,49.343,49.343,0,0,1-9.431,25.726l-.121.154-.117-.1-.124-.143a48.091,48.091,0,0,0,9.175-30.33,47.2,47.2,0,0,0-10.067-27.829,47.8,47.8,0,0,0-49.037-17.421A48.353,48.353,0,0,0,90.6,92.447H88.99c.037-.305.066-.618.106-.927a49.488,49.488,0,0,1,33.189-40.3,49.169,49.169,0,0,1,14.031-2.5,1.39,1.39,0,0,0,.267-.059H139.2Z" transform="translate(-72.786 -48.66)" fill="#eeece8"/>
  <path id="Path_199" data-name="Path 199" d="M88.66,195.827c.5-.059.973-.118,1.452-.177.066.611.121,1.173.183,1.736a44.379,44.379,0,0,0,1.159,6.381,48.359,48.359,0,0,0,34.586,34.909,42.967,42.967,0,0,0,6.747,1.243c1.342.132,2.7.191,4.044.232,1.229.037,2.465.051,3.693-.018,1.474-.085,2.944-.265,4.414-.427.241-.026.325.063.4.3A49.369,49.369,0,0,1,88.66,195.827" transform="translate(-72.577 -141.591)" fill="#eeece8"/>
  <path id="Path_200" data-name="Path 200" d="M251.5,302.275a5.2,5.2,0,0,1-.856.908,3.684,3.684,0,0,1-1.2.647,3.356,3.356,0,0,1-1.3.177,1.736,1.736,0,0,1-1.042-.427,1.587,1.587,0,0,1-.5-.805,2.674,2.674,0,0,1-.139-.93,4.941,4.941,0,0,1,.413-1.979,3.893,3.893,0,0,1,.545-1.008,2.186,2.186,0,0,1,.464-.478,1.157,1.157,0,0,1,.355-.206,1.274,1.274,0,0,1,.413-.085l.026,0h.073l.084.026.135.037.033.018.073.052.044.044.055.059.04.033a.816.816,0,0,1,.179.471,1.92,1.92,0,0,1-.022.5,2.537,2.537,0,0,1-.176.526l-.117.107-.168.048-.124-.059,0-.136-.007-.015a1.422,1.422,0,0,0,.2-.864.541.541,0,0,0-.139-.338.344.344,0,0,0-.311-.1l-.168.048-.186.107a1.8,1.8,0,0,0-.336.349,3.931,3.931,0,0,0-.461.886,5.16,5.16,0,0,0-.344,1.824,1.972,1.972,0,0,0,.549,1.493,1.331,1.331,0,0,0,.775.316,2.752,2.752,0,0,0,1.017-.121,3.7,3.7,0,0,0,.962-.485l.234-.165.135-.118.084-.074a2.142,2.142,0,0,0,.256-.261l.128-.129a6.063,6.063,0,0,0,1.031-1.839,8.783,8.783,0,0,0,.431-1.887l.059-.077.117-.059.1.018.015.077.007.015a15.085,15.085,0,0,1-.464,1.92,7.273,7.273,0,0,1-.98,1.938" transform="translate(-172.67 -206.357)" fill="#eeece8"/>
  <path id="Path_201" data-name="Path 201" d="M271.546,284.155l.007.1a11.076,11.076,0,0,1-1.163,2.163,8.764,8.764,0,0,1-1.594,1.861,7.37,7.37,0,0,1-.969.684,1.942,1.942,0,0,1-1.06.349,1.017,1.017,0,0,1-.841-.548l-.029-.081-.015-.04c-.1.239-.194.456-.3.677a9.111,9.111,0,0,1-1.017,1.567,7.32,7.32,0,0,1-.669.68,2.56,2.56,0,0,1-.834.493.888.888,0,0,1-.49.037.694.694,0,0,1-.417-.265,1.459,1.459,0,0,1-.19-.993,3.065,3.065,0,0,1,.267-.978,4.629,4.629,0,0,1,.45-.879,5.945,5.945,0,0,1,1.269-1.412,5.5,5.5,0,0,1,2.984-1.317l.088.04.037.1L267,286.5l-.08.055a7.026,7.026,0,0,0-2.684,1.534,6.045,6.045,0,0,0-1.006,1.236,3.474,3.474,0,0,0-.512,1.368.759.759,0,0,0,.066.478.35.35,0,0,0,.322.129,1.742,1.742,0,0,0,.589-.254,3.262,3.262,0,0,0,.611-.493,5.082,5.082,0,0,0,.991-1.35,2.723,2.723,0,0,0,.307-1.453l.011-.033-.007-.018.007-.055.08-.2a.5.5,0,0,1,.2-.14l.165.037.062.18.007.022a2.1,2.1,0,0,0,.161.908.722.722,0,0,0,.581.452,1.614,1.614,0,0,0,.881-.28,6.657,6.657,0,0,0,.9-.611,9.082,9.082,0,0,0,1.561-1.736,11.28,11.28,0,0,0,1.145-2.078l.055-.063.088-.037Z" transform="translate(-182.499 -197.512)" fill="#eeece8"/>
  <path id="Path_202" data-name="Path 202" d="M289.975,281.539l-.1.085-.084.077-.172.132a1.3,1.3,0,0,1-.5.21,1.4,1.4,0,0,1-.486-.018,2.522,2.522,0,0,1-.333-.143,2.052,2.052,0,0,1-.45-.39,2.662,2.662,0,0,1-.329-.434,9.989,9.989,0,0,1-.527-.945,16.774,16.774,0,0,1-.753-1.968,40.221,40.221,0,0,1-1.031-4.137q-.373-1.9-.633-3.854l-.223-.114-.051.04-.11.07a4.148,4.148,0,0,1-.633.427l-.194.1-.154.026-.084-.026-.051-.059-.018-.092.033-.085.007-.037.069-.154a1.1,1.1,0,0,1,.238-.3.831.831,0,0,1,.421-.221,1,1,0,0,1,.4-.011l.161.04.117-.107c-.161-1.379-.307-2.78-.4-4.174-.1-1.456-.154-2.905-.172-4.388a39.2,39.2,0,0,1,.223-4.461,21.256,21.256,0,0,1,.4-2.295,5.977,5.977,0,0,1,.373-1.166,2.706,2.706,0,0,1,.289-.6,2.663,2.663,0,0,1,.453-.592l.018-.011.172-.136a.772.772,0,0,1,.234-.114.431.431,0,0,1,.274-.029.381.381,0,0,1,.208.085.529.529,0,0,1,.208.239,1.043,1.043,0,0,1,.1.257,3.6,3.6,0,0,1,.186,1.078,16.906,16.906,0,0,1-.073,2.236,31.42,31.42,0,0,1-.819,4.564c-.183.765-.417,1.523-.662,2.3-.227.721-.5,1.445-.775,2.174v.151a4.616,4.616,0,0,0,.055.515q.159,1.9.38,3.777c.523-.456,1.009-.934,1.5-1.42.662-.662,1.287-1.353,1.865-2.041a22.757,22.757,0,0,0,2.852-4.365l.1-.085.128-.029.073.048.015.077a12.525,12.525,0,0,1-1.291,2.288c-.516.725-1.079,1.438-1.675,2.137a40.009,40.009,0,0,1-3.514,3.641,8.152,8.152,0,0,0,.139,1.033c.168.154.344.324.516.478a14.654,14.654,0,0,1,1.364,1.64,11.618,11.618,0,0,1,1.123,1.791c.344.614.647,1.243.932,1.887a16.775,16.775,0,0,1,.753,1.968,9.623,9.623,0,0,1,.263,1.041,5.239,5.239,0,0,1,.106,1.114,2.326,2.326,0,0,1-.091.6,1.821,1.821,0,0,1-.362.673m-5.891-11.559.033-.033a.979.979,0,0,0-.311,0,.518.518,0,0,0-.234.114l-.154.228-.084.125v.051l.117-.055a5.8,5.8,0,0,0,.6-.394Zm.57-6.627c.121-.294.234-.607.351-.916.278-.761.512-1.519.746-2.277a29.777,29.777,0,0,0,.892-4.516,12.511,12.511,0,0,0,.059-2.214,4.005,4.005,0,0,0-.2-1,.739.739,0,0,0-.249-.368l-.066-.037-.007-.015-.018.011-.018.007-.2.132a2.974,2.974,0,0,0-.611,1.026,10.846,10.846,0,0,0-.329,1.107,16.307,16.307,0,0,0-.333,2.243,42.574,42.574,0,0,0-.128,4.413c.029.8.062,1.615.11,2.405m5.1,17.532a2,2,0,0,0,.088-.515,5.416,5.416,0,0,0-.055-1.059c-.066-.338-.135-.68-.23-1.022A19.1,19.1,0,0,0,288,274.441a11.215,11.215,0,0,0-1.079-1.795,13.558,13.558,0,0,0-1.313-1.633l-.19-.195c.146,1,.311,1.986.512,2.953.263,1.394.589,2.762.965,4.1a17.072,17.072,0,0,0,.724,1.953,7.9,7.9,0,0,0,.483.9,2.334,2.334,0,0,0,.662.728.554.554,0,0,0,.384.1l.179-.07.11-.07.077-.088a1.122,1.122,0,0,0,.245-.441" transform="translate(-195.889 -177.011)" fill="#eeece8"/>
  <path id="Path_203" data-name="Path 203" d="M310.644,271.931a6.8,6.8,0,0,1-1.265.8,5.639,5.639,0,0,1-1.437.5,2.864,2.864,0,0,1-.753.029,1.7,1.7,0,0,1-.658-.224,1.606,1.606,0,0,1-.644-.941,4,4,0,0,1,.08-2.273,6.01,6.01,0,0,1,.512-1.181,3.757,3.757,0,0,1,.41-.588,2.582,2.582,0,0,1,.6-.544,1.691,1.691,0,0,1,.431-.195,1.047,1.047,0,0,1,.5-.055.723.723,0,0,1,.358.2.534.534,0,0,1,.121.3,1.248,1.248,0,0,1-.022.6,2.827,2.827,0,0,1-.234.6,3.669,3.669,0,0,1-.852,1.111,4.69,4.69,0,0,1-1.305.82l-.018.011a3.476,3.476,0,0,0,.091.938,1.522,1.522,0,0,0,.479.75,1.336,1.336,0,0,0,.969.276,2.578,2.578,0,0,0,.647-.1,3.231,3.231,0,0,0,.629-.239,5.776,5.776,0,0,0,1.174-.743,8.244,8.244,0,0,0,.984-.934,9.839,9.839,0,0,0,.8-1.03,4.836,4.836,0,0,0,.556-1.085,3.176,3.176,0,0,0,.271-1.081l.04-.07.069-.052.077.015.033.066a4.7,4.7,0,0,1-.8,2.254,8.288,8.288,0,0,1-1.836,2.06m-4.147-1.4a3.489,3.489,0,0,0,1.766-1.6,1.336,1.336,0,0,0,.15-.986.287.287,0,0,0-.227-.228l-.194.044-.212.1a1.855,1.855,0,0,0-.413.386,4.84,4.84,0,0,0-.314.493,4.175,4.175,0,0,0-.421,1.067,7.01,7.01,0,0,0-.135.724" transform="translate(-210.287 -186.858)" fill="#eeece8"/>
  <path id="Path_204" data-name="Path 204" d="M129.457,110.712c.494.434.139.677-.538.647-5.189-.224-9.01-.11-14.367,3.24a41.032,41.032,0,0,0-8.912,7.157,53.79,53.79,0,0,0-7.771,10.077c-2.571,4.119-4.717,7.411-5.551,8.518a1.576,1.576,0,0,1-1.474.611c-2.4-.324-8.546-1.684-14.667-2.788a48.741,48.741,0,0,0-15.622-.618c-4.776.563-10.989,4.156-14.872,7.543-.5.438-1.225.257-.943-.335,1.415-3,5.5-8.915,11.186-11.037,5.741-2.14,11.329-1.033,15.38-.276,5.723,1.074,17.457,4.663,18.876,4.119,1.141-.441,6.641-11.037,9.859-15.726,4.71-6.87,8.008-10.191,11.5-12.317,4.567-2.784,16.935.32,17.911,1.184" transform="translate(-44.678 -86.425)" fill="#eeece8"/>
  <path id="Path_205" data-name="Path 205" d="M187.417,133.476c.241.268.033.379-.333.32a16.465,16.465,0,0,0-8.3.816c-2.351,1.089-2.194,1.25-4.7,3.321a33.327,33.327,0,0,0-5.222,5.175c-1.653,2.1-3.028,3.766-3.551,4.321a.864.864,0,0,1-.841.243c-1.291-.324-4.575-1.445-7.858-2.416a26.842,26.842,0,0,0-8.509-1.291c-2.648.018-6.264,1.607-8.593,3.222-.3.21-.687.066-.5-.243.954-1.559,3.543-4.542,6.787-5.358,3.269-.824,6.26.125,8.433.787,3.068.934,9.274,3.615,10.082,3.406.651-.173,4.341-5.873,6.341-8.006,3.02-3.222,5-5.086,7.036-6.039,2.662-1.243,9.241,1.21,9.727,1.743" transform="translate(-104.484 -100.962)" fill="#eeece8"/>
  <g id="Group_1" data-name="Group 1" transform="translate(78.876 33.671)">
    <path id="Path_206" data-name="Path 206" d="M263.132,153.1l.1-.063a.09.09,0,0,1,.135.1c-.026.1-.059.121-.059.121s-.113.154-.2.154c-.1-.011-.176-.092-.252-.228a1.929,1.929,0,0,1-.238-1.118c.044-.783.113-1.563.172-2.343a.8.8,0,0,0,0-.228c-.018.022-.04.048-.055.07-.2.3-.4.607-.611.9a2.49,2.49,0,0,1-.8.743.36.36,0,0,1-.307.033.824.824,0,0,1-.644-.861,2.538,2.538,0,0,1,.344-1.25,2.625,2.625,0,0,1,1.075-1.14,1.445,1.445,0,0,1,.856-.143.2.2,0,0,1,.11.066c.084.085.1.085.168-.015a3.209,3.209,0,0,0,.457-1.089c.2-.8.38-1.611.589-2.409a18.406,18.406,0,0,1,1.2-3.4,4.441,4.441,0,0,1,.311-.544c.2-.294.329-.294.64-.136a.565.565,0,0,1,.106.085.359.359,0,0,1,.135.331,8.848,8.848,0,0,1-.541,2.232c-.41,1.118-.852,2.221-1.349,3.3-.04.085-.11.224-.154.309a8.9,8.9,0,0,0-.669,1.776,9.676,9.676,0,0,0-.223,1.261c-.1.732-.2,1.464-.278,2.2-.04.4-.022.809-.026,1.214C263.117,153.04,263.125,153.066,263.132,153.1Zm-2.194-2.214a5.784,5.784,0,0,0,1.616-2.159.291.291,0,0,0-.044-.338c0-.007-.011-.011-.015-.018-.059-.07-.106-.077-.176-.018-.146.121-.307.224-.45.349A2.786,2.786,0,0,0,260.938,150.888Zm4.688-9.349a9,9,0,0,0-1.009,2.747A15.083,15.083,0,0,0,265.626,141.54Z" transform="translate(-260.377 -140.213)" fill="#eeece8"/>
  </g>
  <g id="Group_2" data-name="Group 2" transform="translate(51.738 39.429)">
    <path id="Path_207" data-name="Path 207" d="M236.534,156.613l.037.007h.04a.344.344,0,0,0,.384-.342c.007-.107-.015-.364-.413-.408a.343.343,0,0,0-.285.213l0,.015A.4.4,0,0,0,236.534,156.613Z" transform="translate(-217.947 -155.87)" fill="#eeece8"/>
    <path id="Path_208" data-name="Path 208" d="M242.062,160.968a.177.177,0,0,0-.165-.015c-.059.022-.183.074-.369.162a5.3,5.3,0,0,1-2.157.8s-.007-.011,0-.063a3.432,3.432,0,0,1,.282-1.019c.2-.463.241-.736.117-.879-.274-.474-1.075-.088-1.338.04a10.5,10.5,0,0,0-2.249,1.541.112.112,0,0,0,.018-.026c.139-.177.3-.375.464-.6.311-.39.508-.651.6-.8.062-.1.194-.309.069-.39a.3.3,0,0,0-.216-.1h0c-.2,0-.475.18-.848.566a3.64,3.64,0,0,0-.6.783l-.545.235a4.175,4.175,0,0,0-.413.151,15.508,15.508,0,0,1-1.576.566,6.375,6.375,0,0,1-.655.169,2.222,2.222,0,0,1-.8.044.3.3,0,0,1-.3-.338,1.448,1.448,0,0,1,.241-.655,12.687,12.687,0,0,1,.881-1.361,3.081,3.081,0,0,0,.4-.574.285.285,0,0,0-.051-.368c-.318-.254-.768.2-1.079.563a4.961,4.961,0,0,0-.735,1.078,2.232,2.232,0,0,0-.256,1.313.883.883,0,0,0,.9.765h.128a3.6,3.6,0,0,0,1.082-.154,21.25,21.25,0,0,0,2.534-.96c-.055.121-.11.246-.157.379-.157.43-.176.662-.066.776a.226.226,0,0,0,.15.088c.048,0,.1-.022.252-.143.1-.081.238-.2.424-.36a10.315,10.315,0,0,1,2.2-1.615,2.887,2.887,0,0,1,.83-.338.33.33,0,0,1,.084-.015,2.269,2.269,0,0,1-.139.36c-.333.747-.421,1.258-.271,1.559.1.2.34.416.914.276.113-.037.3-.118.556-.232s.523-.246.808-.4.523-.279.731-.4c.336-.191.366-.213.366-.287A.133.133,0,0,0,242.062,160.968Z" transform="translate(-214.459 -157.709)" fill="#eeece8"/>
    <path id="Path_209" data-name="Path 209" d="M204.088,174.691a.17.17,0,0,0-.154-.114,2.755,2.755,0,0,0-.362-.029c-.165,0-.38,0-.636,0s-.552.018-.9.04-.7.044-1.112.077c-.11,0-.23,0-.362.007.069-.088.161-.191.271-.32a6.9,6.9,0,0,0,.636-.85c.132-.224.139-.394.026-.515-.157-.14-.369-.088-.64.154a15.146,15.146,0,0,0-1.422,1.64c-.673.085-1.715.2-3.167.342-.04,0-.1,0-.165.007a.239.239,0,0,0-.157.077.169.169,0,0,0-.022.14l.018.037a4.615,4.615,0,0,1,.746,3.365c-.19.044-.479.129-.885.257l-.245.074a2.837,2.837,0,0,0-.311.132l-.388.132c-.655.268-1.3.552-1.92.846l-.431.213-.219-.088a3.207,3.207,0,0,1-.731-.478c.106-.305.483-.629,1.126-.956A3.5,3.5,0,0,1,194,178.6a1.033,1.033,0,0,0,.311.007.129.129,0,0,0,.1-.066.209.209,0,0,0,.015-.162c-.135-.346-.647-.4-1.565-.18a3.353,3.353,0,0,0-1.2.53,1.577,1.577,0,0,0-.753.96c-.11.077-.223.158-.34.232a7.881,7.881,0,0,1-1.247.7,3.032,3.032,0,0,1-1.382.287,1.343,1.343,0,0,1-.837-.316.873.873,0,0,1-.3-.8.2.2,0,0,1,.026-.077.381.381,0,0,1,.088-.04,2.3,2.3,0,0,0,1.309-.736.478.478,0,0,0,.161-.452l-.015-.037a.439.439,0,0,0-.494-.2,2.287,2.287,0,0,0-.633.21,2.016,2.016,0,0,0-.943.912,1.483,1.483,0,0,0-.018,1.192,1.525,1.525,0,0,0,1.43.949,1.667,1.667,0,0,0,.234-.015,4.921,4.921,0,0,0,1.905-.592,3.565,3.565,0,0,0,.618-.379c.176-.132.34-.265.5-.39a1.826,1.826,0,0,0,.969.629l-.088.066c-.724.519-1.057.964-1.013,1.379.073.313.377.471.9.471a2.569,2.569,0,0,0,1.583-.585.677.677,0,0,0,.172-.736,1.45,1.45,0,0,0-.439-.6l-.179-.118c.589-.316,1.152-.588,1.671-.805.062-.026.132-.059.208-.1a2.378,2.378,0,0,1,.256-.107c.1-.029.161-.059.2-.07s.073-.022.176-.055a1.744,1.744,0,0,0,.2-.092c.059-.018.161-.051.318-.11q.433-.143.647-.2c.026-.007.044-.015.066-.022a2.937,2.937,0,0,1-.088.342c-.048.18-.077.316-.091.408a3.173,3.173,0,0,1-.2.537,6.569,6.569,0,0,0-.538,1.67.464.464,0,0,0,.132.379.345.345,0,0,0,.219.118c.044,0,.128-.022.161-.173.007-.051.04-.2.091-.434a6.514,6.514,0,0,1,.772-2.166,24.081,24.081,0,0,1,2.337-3.726,9.428,9.428,0,0,1,.655-.794.553.553,0,0,1,.3-.154c.7-.085,1.7-.151,2.984-.2.157-.007.293-.018.413-.026.19-.007.234-.022.256-.044A.122.122,0,0,0,204.088,174.691Zm-17.048,4.524a2.134,2.134,0,0,1,.636-.438,1.16,1.16,0,0,1,.219-.077c.022,0,.015.029-.029.1a1.655,1.655,0,0,1-.559.423,1.039,1.039,0,0,1-.278.11h-.077Zm6.052,2.28c.048.18.044.4-.377.544a2.906,2.906,0,0,1-.925.2,1.411,1.411,0,0,1-.355,0c-.113-.007-.157-.048-.179-.088.051-.3.388-.684,1.009-1.122l.11-.074.143.077A1.639,1.639,0,0,1,193.092,181.495Zm5.844-6.054,0,0c-.362.5-.731,1.07-1.1,1.692-.245.43-.472.846-.677,1.232a4.895,4.895,0,0,0-.069-1.442,7.4,7.4,0,0,0-.549-1.394c.523-.037,1.126-.088,1.788-.154.245-.04.483-.07.728-.1C199.019,175.327,198.979,175.379,198.935,175.441Z" transform="translate(-186.163 -166.644)" fill="#eeece8"/>
  </g>
  <g id="Group_3" data-name="Group 3" transform="translate(127.955 45.714)">
    <path id="Path_210" data-name="Path 210" d="M415.894,177.846c-1.58.228-1.8.408-2.414,2.265-.742,2.265-2.549,8.025-3.788,12.085h-.768c-1.174-3.538-2.684-7.911-3.854-11.269-1.309,3.9-2.637,7.775-3.81,11.269h-.742c-1.126-3.9-2.413-8.139-3.628-12.107-.585-1.835-.834-2.085-2.3-2.243v-.636h5.569v.636c-1.667.18-1.711.43-1.4,1.563.878,3.06,1.781,6.076,2.706,9.271,1.24-3.6,2.593-7.55,3.741-11.268h.72c1.262,3.854,2.523,7.436,3.832,11.291.947-3.016,2.231-7.05,2.728-9.021.336-1.313.157-1.611-1.759-1.835v-.636h5.163v.636Z" transform="translate(-394.59 -175.647)" fill="#eeece8"/>
    <path id="Path_211" data-name="Path 211" d="M453.09,191.6v-.636c1.419-.136,1.576-.25,1.576-1.791V184.5c0-1.4-.066-1.5-1.419-1.721v-.544a14.548,14.548,0,0,0,3.2-.908v7.845c0,1.541.157,1.655,1.624,1.791v.636Zm2.348-12.49a1.237,1.237,0,0,1-1.2-1.2,1.221,1.221,0,0,1,1.218-1.247,1.179,1.179,0,0,1,1.148,1.247A1.2,1.2,0,0,1,455.438,179.109Z" transform="translate(-431.698 -175.299)" fill="#eeece8"/>
    <path id="Path_212" data-name="Path 212" d="M476.246,199.584v-.636c1.305-.136,1.441-.294,1.441-1.835v-3.74c0-1.585-.563-2.652-2.051-2.652a3.932,3.932,0,0,0-2.5,1.177V197.2c0,1.563.135,1.611,1.466,1.747v.636H469.73v-.636c1.488-.158,1.624-.25,1.624-1.747v-4.671c0-1.475-.157-1.541-1.375-1.747V190.2a12.558,12.558,0,0,0,3.156-.908v1.791c.45-.316.947-.658,1.532-1.044a3.449,3.449,0,0,1,1.872-.68c1.8,0,2.929,1.339,2.929,3.538V197.2c0,1.541.135,1.611,1.444,1.747v.636Z" transform="translate(-442.253 -183.284)" fill="#eeece8"/>
    <path id="Path_213" data-name="Path 213" d="M515.118,188.693a24.223,24.223,0,0,0-3.5.839v-1.475c-.406.25-.991.566-1.4.816a4.087,4.087,0,0,1-1.781.658,4.713,4.713,0,0,1-4.194-4.987,5.7,5.7,0,0,1,5.84-5.509,4.511,4.511,0,0,1,1.532.25v-3.332c0-1.453-.157-1.5-1.759-1.633v-.588a22.375,22.375,0,0,0,3.54-.772v13.67c0,1.181.157,1.339.991,1.383l.72.044v.636Zm-3.492-7.617a2.815,2.815,0,0,0-2.366-1.155c-1.082,0-3,.725-3,3.99,0,2.744,1.689,4.193,3.134,4.218a4.032,4.032,0,0,0,2.231-.816Z" transform="translate(-464.15 -172.96)" fill="#eeece8"/>
    <path id="Path_214" data-name="Path 214" d="M570.368,177.846c-1.576.228-1.8.408-2.413,2.265-.742,2.265-2.549,8.025-3.788,12.085H563.4c-1.174-3.538-2.684-7.911-3.854-11.269-1.309,3.9-2.637,7.775-3.81,11.269h-.742c-1.126-3.9-2.413-8.139-3.631-12.107-.585-1.835-.834-2.085-2.3-2.243v-.636h5.569v.636c-1.667.18-1.711.43-1.4,1.563.878,3.06,1.781,6.076,2.706,9.271,1.24-3.6,2.593-7.55,3.741-11.268h.72c1.262,3.854,2.523,7.436,3.832,11.291.947-3.016,2.231-7.05,2.728-9.021.336-1.313.157-1.611-1.759-1.835v-.636h5.163v.636Z" transform="translate(-492.574 -175.647)" fill="#eeece8"/>
    <path id="Path_215" data-name="Path 215" d="M611.678,197.777a5.132,5.132,0,0,1-3.741,2.2c-2.75,0-4.417-2.265-4.417-4.873a5.839,5.839,0,0,1,1.466-3.968,4.611,4.611,0,0,1,3.357-1.655A3.527,3.527,0,0,1,611.792,193c-.022.452-.091.658-.45.747-.45.092-3.335.294-6.019.386-.069,3.038,1.781,4.285,3.383,4.285a3.806,3.806,0,0,0,2.615-1.155Zm-3.88-7.436c-1.039,0-2.051.975-2.366,2.81,1.262,0,2.527,0,3.854-.07.406,0,.541-.114.541-.452A2.1,2.1,0,0,0,607.8,190.341Z" transform="translate(-527.119 -183.404)" fill="#eeece8"/>
    <path id="Path_216" data-name="Path 216" d="M636.025,192.458c-.406-1.313-.991-2.221-2.366-2.221a1.371,1.371,0,0,0-1.4,1.475c0,.975.655,1.427,1.916,2.019,1.938.93,2.907,1.611,2.907,3.108,0,2.085-1.894,3.152-3.675,3.152a5.872,5.872,0,0,1-2.684-.636c-.113-.658-.315-1.905-.406-2.652l.655-.114c.406,1.453,1.2,2.63,2.772,2.63a1.506,1.506,0,0,0,1.576-1.541c0-1.019-.607-1.541-1.8-2.133-1.58-.772-2.863-1.5-2.863-3.13,0-1.655,1.4-2.924,3.518-2.924a11.744,11.744,0,0,1,2.165.294c.069.544.227,1.971.336,2.516Z" transform="translate(-544.119 -183.411)" fill="#eeece8"/>
    <path id="Path_217" data-name="Path 217" d="M656.543,194.3a2.285,2.285,0,0,1-.969.294c-1.444,0-2.209-.883-2.209-2.7v-6.6h-1.554l-.091-.272.607-.658h1.039v-1.905c.428-.452,1.082-1.044,1.51-1.5l.336.044c-.044.953-.069,2.266-.069,3.354h2.571a.714.714,0,0,1-.135.93h-2.435v5.8c0,1.835.72,2.177,1.306,2.177a3.209,3.209,0,0,0,1.375-.364l.2.588Z" transform="translate(-557.693 -178.018)" fill="#eeece8"/>
    <path id="Path_218" data-name="Path 218" d="M700.241,187.777A28.928,28.928,0,0,1,699,191.2a20.449,20.449,0,0,1-4.125.544c-5.386,0-8.136-3.6-8.136-7.572,0-4.627,3.5-7.822,8.542-7.822a22.794,22.794,0,0,1,4.26.522c.091,1.019.249,2.379.428,3.516l-.7.158c-.45-1.519-.991-2.449-2.143-2.924a6.128,6.128,0,0,0-2.366-.43c-3.719,0-5.683,2.766-5.683,6.506,0,4.376,2.253,7.186,5.906,7.186,2.3,0,3.426-1.067,4.575-3.332Z" transform="translate(-579.907 -175.103)" fill="#eeece8"/>
    <path id="Path_219" data-name="Path 219" d="M736.448,199.982a1.651,1.651,0,0,1-1.06-.43,2.134,2.134,0,0,1-.541-1.019c-.9.611-2.008,1.453-2.706,1.453a2.773,2.773,0,0,1-2.75-2.788,2.308,2.308,0,0,1,1.847-2.269,17.618,17.618,0,0,0,3.562-1.475V193c0-1.611-.812-2.538-1.982-2.538a1.308,1.308,0,0,0-1.06.522,4.806,4.806,0,0,0-.607,1.475.628.628,0,0,1-.655.522,1.086,1.086,0,0,1-.991-1c0-.316.293-.588.742-.908a9.4,9.4,0,0,1,3.247-1.589,2.965,2.965,0,0,1,3.042,3.24v4.376c0,1.044.384,1.361.79,1.361a1.788,1.788,0,0,0,.812-.25l.227.636Zm-1.646-5.734c-.5.25-1.576.725-2.1.953-.856.386-1.375.816-1.375,1.655a1.646,1.646,0,0,0,1.624,1.747,3.006,3.006,0,0,0,1.85-.816C734.8,196.717,734.8,195.312,734.8,194.249Z" transform="translate(-606.961 -183.411)" fill="#eeece8"/>
    <path id="Path_220" data-name="Path 220" d="M757.82,179.308V178.7a5.848,5.848,0,0,1,1.982-4.535,4.675,4.675,0,0,1,2.523-1.2,2.5,2.5,0,0,1,1.825.725.733.733,0,0,1,.135.794,1.789,1.789,0,0,1-.541.725.512.512,0,0,1-.655-.044,2.907,2.907,0,0,0-1.825-.93c-1.667,0-1.667,2.291-1.667,4.012v1.067h2.388a.867.867,0,0,1-.227.93h-2.165v6.554c0,1.633.249,1.655,1.938,1.835v.636h-5.3v-.636c1.419-.136,1.58-.228,1.58-1.7v-6.69h-1.6l-.091-.25.5-.68h1.2Z" transform="translate(-623.917 -172.96)" fill="#eeece8"/>
    <path id="Path_221" data-name="Path 221" d="M782.738,197.777a5.132,5.132,0,0,1-3.741,2.2c-2.75,0-4.417-2.265-4.417-4.873a5.839,5.839,0,0,1,1.466-3.968,4.611,4.611,0,0,1,3.357-1.655A3.527,3.527,0,0,1,782.852,193c-.022.452-.091.658-.45.747-.45.092-3.335.294-6.019.386-.07,3.038,1.781,4.285,3.383,4.285a3.807,3.807,0,0,0,2.615-1.155Zm-3.876-7.436c-1.039,0-2.051.975-2.366,2.81,1.262,0,2.527,0,3.854-.07.406,0,.541-.114.541-.452A2.1,2.1,0,0,0,778.862,190.341Z" transform="translate(-635.626 -183.404)" fill="#eeece8"/>
  </g>
</svg>
