<svg id="Tripadvisor" xmlns="http://www.w3.org/2000/svg" width="17.373" height="11.146" viewBox="0 0 17.373 11.146">
  <path id="Path_245" data-name="Path 245" d="M18.99,15.91A1.536,1.536,0,1,0,20.52,17.44,1.536,1.536,0,0,0,18.99,15.91Zm2.935-1.659h0l1.4-1.542H20.167A9.728,9.728,0,0,0,14.656,11a9.907,9.907,0,0,0-5.573,1.7h-3.1L7.374,14.22h0a3.851,3.851,0,0,0-.545.619,4.334,4.334,0,0,0,6.415,5.777l1.412,1.529,1.381-1.511a4.334,4.334,0,0,0,6.192-6.056,3.876,3.876,0,0,0-.322-.328Zm-11.6,6.111a2.923,2.923,0,1,1,2.923-2.923A2.923,2.923,0,0,1,10.321,20.362Zm4.334-2.923a4.681,4.681,0,0,0-3.232-4.334,7.2,7.2,0,0,1,3.232-.669,7.053,7.053,0,0,1,3.214.656,4.855,4.855,0,0,0-3.214,4.347Zm4.334,2.941a2.923,2.923,0,1,1,2.923-2.923A2.923,2.923,0,0,1,18.99,20.381ZM11.851,17.44a1.529,1.529,0,1,1-1.529-1.529A1.529,1.529,0,0,1,11.851,17.44Z" transform="translate(-5.966 -11)" fill="#eeece8"/>
</svg>
