<svg id="WWC_-_Logo_Variation_-_Vertical-01" data-name="WWC - Logo Variation - Vertical-01" xmlns="http://www.w3.org/2000/svg" width="142.257" height="125.43" viewBox="0 0 142.257 125.43">
  <g id="Group_51" data-name="Group 51" transform="translate(11.858)">
    <path id="Path_246" data-name="Path 246" d="M201.4,46.59l.227.055a48.386,48.386,0,0,1,7.819.887,47.607,47.607,0,0,1,35.678,31.314,43.757,43.757,0,0,1,2.014,8.436c.2,1.561.342,3.135.45,4.707a39.529,39.529,0,0,1-.06,5.626,47.309,47.309,0,0,1-9.113,24.717l-.115.147-.112-.09-.122-.137a45.991,45.991,0,0,0,8.863-29.138A45.2,45.2,0,0,0,237.2,66.375a46.473,46.473,0,0,0-82.769,22.283H152.88c.035-.292.062-.592.1-.892a47.632,47.632,0,0,1,32.066-38.721,46.337,46.337,0,0,1,8.4-1.961,47.52,47.52,0,0,1,5.159-.44,1.313,1.313,0,0,0,.257-.055Z" transform="translate(-137.226 -46.59)" fill="#253871"/>
    <path id="Path_247" data-name="Path 247" d="M152.42,254.66c.487-.057.939-.112,1.4-.17.062.587.117,1.127.175,1.666a42.53,42.53,0,0,0,1.119,6.13,46.585,46.585,0,0,0,33.415,33.538,41.871,41.871,0,0,0,6.52,1.194c1.3.125,2.6.185,3.907.222,1.189.035,2.381.05,3.567-.02,1.424-.082,2.845-.255,4.264-.407.232-.025.315.062.385.287a47.555,47.555,0,0,1-47.145-20.852,46.768,46.768,0,0,1-7.612-21.589" transform="translate(-136.881 -202.554)" fill="#253871"/>
    <path id="Path_248" data-name="Path 248" d="M380.462,403.407a4.982,4.982,0,0,1-.827.872,3.646,3.646,0,0,1-1.154.625,3.305,3.305,0,0,1-1.259.17,1.7,1.7,0,0,1-1.007-.407,1.527,1.527,0,0,1-.487-.772A2.524,2.524,0,0,1,375.6,403a4.734,4.734,0,0,1,.4-1.9,3.8,3.8,0,0,1,.525-.969,2.144,2.144,0,0,1,.447-.46,1.234,1.234,0,0,1,.342-.2,1.2,1.2,0,0,1,.4-.08l.025.005h.07l.082.025.132.035.033.018.07.047.045.042.052.057.037.03a.754.754,0,0,1,.172.452,1.843,1.843,0,0,1-.02.482,2.325,2.325,0,0,1-.17.507l-.112.1-.162.047-.12-.057.005-.132-.005-.015a1.376,1.376,0,0,0,.2-.829.506.506,0,0,0-.132-.325.332.332,0,0,0-.3-.1l-.162.045-.182.1a1.883,1.883,0,0,0-.325.335,3.637,3.637,0,0,0-.445.849,4.942,4.942,0,0,0-.332,1.754,1.879,1.879,0,0,0,.532,1.434,1.294,1.294,0,0,0,.749.3,2.684,2.684,0,0,0,.984-.117,3.543,3.543,0,0,0,.932-.467l.225-.157.132-.112.08-.072a1.675,1.675,0,0,0,.247-.252l.125-.125a5.755,5.755,0,0,0,.994-1.766,8.492,8.492,0,0,0,.417-1.814l.055-.075.112-.055.1.018.012.075,0,.012a14.551,14.551,0,0,1-.45,1.844,7.281,7.281,0,0,1-.957,1.861" transform="translate(-304.304 -311.255)" fill="#253871"/>
    <path id="Path_249" data-name="Path 249" d="M406.8,379.665l.007.09a10.763,10.763,0,0,1-1.124,2.078,8.421,8.421,0,0,1-1.541,1.789,7.466,7.466,0,0,1-.934.66,1.867,1.867,0,0,1-1.024.335.986.986,0,0,1-.812-.527l-.027-.077-.012-.037c-.09.23-.187.437-.285.65a8.664,8.664,0,0,1-.984,1.5,6.951,6.951,0,0,1-.647.655,2.466,2.466,0,0,1-.8.475.845.845,0,0,1-.472.035.687.687,0,0,1-.4-.252,1.392,1.392,0,0,1-.185-.952,3.02,3.02,0,0,1,.257-.939,4.675,4.675,0,0,1,.435-.847,5.769,5.769,0,0,1,1.227-1.359,5.318,5.318,0,0,1,2.883-1.264l.085.038.035.1-.06.112-.08.052a6.8,6.8,0,0,0-2.593,1.471,5.8,5.8,0,0,0-.972,1.187,3.273,3.273,0,0,0-.492,1.314.726.726,0,0,0,.062.46.339.339,0,0,0,.31.125,1.716,1.716,0,0,0,.57-.245,3.367,3.367,0,0,0,.59-.472,5,5,0,0,0,.959-1.3,2.585,2.585,0,0,0,.295-1.394l.013-.032-.005-.02.005-.052.077-.195a.468.468,0,0,1,.2-.132l.157.035.06.175.005.02a1.993,1.993,0,0,0,.157.874.692.692,0,0,0,.562.432,1.568,1.568,0,0,0,.852-.267,5.991,5.991,0,0,0,.864-.587,8.693,8.693,0,0,0,1.509-1.669,10.9,10.9,0,0,0,1.107-1.994l.052-.06.085-.035Z" transform="translate(-320.759 -296.424)" fill="#253871"/>
    <path id="Path_250" data-name="Path 250" d="M434.02,362.424l-.1.08-.08.072-.167.13a1.271,1.271,0,0,1-.482.2,1.308,1.308,0,0,1-.47-.018,2.364,2.364,0,0,1-.32-.137,1.891,1.891,0,0,1-.435-.375,2.6,2.6,0,0,1-.317-.417,9.278,9.278,0,0,1-.51-.909,16.442,16.442,0,0,1-.729-1.891,37.891,37.891,0,0,1-1-3.975q-.363-1.825-.612-3.7l-.215-.107-.05.04-.107.067a3.933,3.933,0,0,1-.61.41l-.187.09-.15.022-.082-.025-.05-.057-.02-.087.03-.08.005-.035.067-.147a1.047,1.047,0,0,1,.23-.29.812.812,0,0,1,.4-.212.9.9,0,0,1,.39-.01l.157.037.112-.1c-.155-1.324-.3-2.671-.39-4.01-.1-1.4-.147-2.79-.165-4.214a37.094,37.094,0,0,1,.217-4.284,19.841,19.841,0,0,1,.39-2.206,5.6,5.6,0,0,1,.362-1.119,2.821,2.821,0,0,1,.277-.575,2.587,2.587,0,0,1,.44-.57l.02-.01.167-.13a.722.722,0,0,1,.225-.11.418.418,0,0,1,.265-.027.347.347,0,0,1,.2.08.553.553,0,0,1,.2.227,1.015,1.015,0,0,1,.095.247,3.4,3.4,0,0,1,.177,1.037,16.235,16.235,0,0,1-.07,2.148,29.849,29.849,0,0,1-.792,4.384c-.175.737-.4,1.464-.642,2.213-.22.692-.485,1.389-.747,2.086v.145a3.941,3.941,0,0,0,.055.495c.1,1.217.227,2.428.367,3.627.5-.44.977-.9,1.444-1.364.639-.635,1.242-1.3,1.8-1.964a21.871,21.871,0,0,0,2.755-4.194l.1-.08.125-.027.07.047.012.075a11.9,11.9,0,0,1-1.249,2.2c-.5.7-1.042,1.384-1.619,2.053a38.221,38.221,0,0,1-3.4,3.5,7.756,7.756,0,0,0,.135.992c.165.147.335.31.5.457a14.111,14.111,0,0,1,1.317,1.576,11.019,11.019,0,0,1,1.084,1.719c.332.59.625,1.194.9,1.811a16.431,16.431,0,0,1,.729,1.891,8.048,8.048,0,0,1,.252,1,4.97,4.97,0,0,1,.1,1.072,2.17,2.17,0,0,1-.09.58,1.5,1.5,0,0,1-.335.652m-5.693-11.107.032-.032a.862.862,0,0,0-.3,0,.5.5,0,0,0-.225.107l-.147.22-.08.12v.05l.112-.055a5.479,5.479,0,0,0,.58-.377Zm.55-6.365c.117-.285.227-.582.337-.879.27-.732.495-1.459.722-2.186a28.885,28.885,0,0,0,.862-4.337,12.187,12.187,0,0,0,.057-2.128,3.811,3.811,0,0,0-.19-.967.716.716,0,0,0-.242-.355l-.062-.035-.008-.015-.017.01-.02.008-.192.127a2.859,2.859,0,0,0-.59.984,10.469,10.469,0,0,0-.317,1.064,15.733,15.733,0,0,0-.322,2.156,40.243,40.243,0,0,0-.122,4.239c.03.772.062,1.551.1,2.313m4.931,16.84a2.053,2.053,0,0,0,.085-.495,4.966,4.966,0,0,0-.052-1.017c-.065-.327-.13-.652-.222-.984a18.222,18.222,0,0,0-1.509-3.695,10.69,10.69,0,0,0-1.042-1.724,13.489,13.489,0,0,0-1.267-1.569l-.185-.187c.14.957.3,1.906.492,2.835q.382,2.008.934,3.94a16.692,16.692,0,0,0,.7,1.876,7.792,7.792,0,0,0,.465.864,2.312,2.312,0,0,0,.637.7.555.555,0,0,0,.37.1l.175-.067.1-.067.075-.085a1.028,1.028,0,0,0,.24-.422" transform="translate(-343.115 -261.999)" fill="#253871"/>
    <path id="Path_251" data-name="Path 251" d="M464.19,360.253a6.628,6.628,0,0,1-1.222.772,5.465,5.465,0,0,1-1.389.475,2.827,2.827,0,0,1-.727.028,1.689,1.689,0,0,1-.635-.215,1.55,1.55,0,0,1-.622-.9,3.826,3.826,0,0,1,.077-2.183,5.884,5.884,0,0,1,.495-1.134,3.6,3.6,0,0,1,.395-.565,2.5,2.5,0,0,1,.58-.522,1.585,1.585,0,0,1,.42-.187,1.053,1.053,0,0,1,.482-.055.7.7,0,0,1,.347.19.5.5,0,0,1,.115.285,1.23,1.23,0,0,1-.02.58,2.794,2.794,0,0,1-.227.582,3.509,3.509,0,0,1-.824,1.067,4.565,4.565,0,0,1-1.262.789l-.017.01a3.246,3.246,0,0,0,.09.9,1.448,1.448,0,0,0,.462.719,1.3,1.3,0,0,0,.937.265,2.49,2.49,0,0,0,.627-.092,3.4,3.4,0,0,0,.607-.227,5.746,5.746,0,0,0,1.134-.712,8.174,8.174,0,0,0,.952-.9,9.091,9.091,0,0,0,.769-.989,4.59,4.59,0,0,0,.537-1.042,3.092,3.092,0,0,0,.262-1.037l.037-.067.067-.05.075.012.032.065a4.5,4.5,0,0,1-.779,2.166,7.966,7.966,0,0,1-1.776,1.979m-4-1.349a3.368,3.368,0,0,0,1.706-1.541,1.27,1.27,0,0,0,.142-.947.271.271,0,0,0-.22-.217l-.187.043-.2.1a1.687,1.687,0,0,0-.4.372,4.274,4.274,0,0,0-.3.472,4.124,4.124,0,0,0-.4,1.024,5.091,5.091,0,0,0-.132.694" transform="translate(-367.227 -278.521)" fill="#253871"/>
    <path id="Path_252" data-name="Path 252" d="M172.131,133.318c.475.417.135.65-.52.622-5.014-.215-8.709-.107-13.882,3.113a39.642,39.642,0,0,0-8.609,6.877,51.733,51.733,0,0,0-7.507,9.683c-2.483,3.957-4.557,7.117-5.364,8.181a1.523,1.523,0,0,1-1.424.587c-2.316-.312-8.259-1.619-14.172-2.678a47.4,47.4,0,0,0-15.094-.592c-4.614.542-10.617,3.995-14.369,7.247-.485.422-1.182.247-.912-.322,1.366-2.888,5.311-8.564,10.807-10.6,5.546-2.056,10.947-.994,14.859-.265,5.531,1.029,16.87,4.482,18.236,3.955,1.1-.425,6.418-10.6,9.523-15.109,4.552-6.6,7.737-9.79,11.114-11.834,4.419-2.676,16.368.3,17.312,1.137" transform="translate(-90.219 -109.981)" fill="#253871"/>
    <path id="Path_253" data-name="Path 253" d="M270.365,165.619c.235.257.032.365-.322.31a16,16,0,0,0-8.024.784c-2.271,1.047-2.121,1.2-4.537,3.19a32.124,32.124,0,0,0-5.046,4.971c-1.6,2.016-2.925,3.617-3.43,4.152a.844.844,0,0,1-.814.235c-1.249-.31-4.422-1.386-7.592-2.323a26,26,0,0,0-8.224-1.239c-2.558.017-6.053,1.541-8.3,3.093-.292.2-.662.065-.48-.232.922-1.5,3.425-4.364,6.555-5.146,3.16-.789,6.051.12,8.146.757,2.963.9,8.958,3.475,9.74,3.27.627-.165,4.194-5.643,6.125-7.689,2.92-3.1,4.826-4.889,6.8-5.8,2.578-1.2,8.936,1.154,9.4,1.669" transform="translate(-190.239 -134.38)" fill="#253871"/>
    <g id="Group_49" data-name="Group 49" transform="translate(76.205 32.34)">
      <path id="Path_254" data-name="Path 254" d="M397.933,188.437s.047-.027.1-.062a.088.088,0,0,1,.132.095c-.025.1-.057.117-.057.117s-.11.15-.192.15-.17-.09-.242-.22a1.856,1.856,0,0,1-.232-1.074c.042-.752.107-1.5.165-2.251a.813.813,0,0,0,0-.22c-.017.022-.037.045-.055.067-.2.287-.385.582-.59.864a2.394,2.394,0,0,1-.772.712.354.354,0,0,1-.3.032.791.791,0,0,1-.622-.827,2.458,2.458,0,0,1,.332-1.2,2.5,2.5,0,0,1,1.039-1.094,1.4,1.4,0,0,1,.827-.137.183.183,0,0,1,.1.065c.082.08.095.08.162-.015a3.1,3.1,0,0,0,.442-1.047c.192-.772.37-1.546.57-2.316a17.308,17.308,0,0,1,1.157-3.27,4.367,4.367,0,0,1,.3-.525c.192-.285.317-.285.62-.13a.609.609,0,0,1,.1.08.345.345,0,0,1,.13.32,8.456,8.456,0,0,1-.522,2.143c-.4,1.074-.824,2.133-1.307,3.173-.037.082-.1.217-.147.3a8.754,8.754,0,0,0-.647,1.706,9.311,9.311,0,0,0-.215,1.212c-.1.7-.2,1.406-.267,2.111-.037.385-.02.777-.025,1.164A.213.213,0,0,0,397.933,188.437Zm-2.121-2.126a5.547,5.547,0,0,0,1.561-2.076.277.277,0,0,0-.042-.325.108.108,0,0,1-.015-.017.1.1,0,0,0-.17-.018c-.142.115-.3.217-.435.337A2.67,2.67,0,0,0,395.812,186.311Zm4.527-8.981a8.57,8.57,0,0,0-.974,2.638A14.12,14.12,0,0,0,400.339,177.331Z" transform="translate(-395.267 -176.045)" fill="#253871"/>
    </g>
    <g id="Group_50" data-name="Group 50" transform="translate(49.984 37.884)">
      <path id="Path_255" data-name="Path 255" d="M361.43,198.952l.035.007h.04a.331.331,0,0,0,.37-.327c.008-.1-.015-.352-.4-.392a.33.33,0,0,0-.277.2l-.005.015A.383.383,0,0,0,361.43,198.952Z" transform="translate(-343.47 -198.24)" fill="#253871"/>
      <path id="Path_256" data-name="Path 256" d="M364.352,204.429a.172.172,0,0,0-.157-.015c-.057.02-.177.072-.357.155a5.1,5.1,0,0,1-2.083.769.158.158,0,0,1,0-.06,3.311,3.311,0,0,1,.272-.979c.2-.447.232-.709.112-.844-.265-.457-1.037-.085-1.292.037a10.124,10.124,0,0,0-2.171,1.479c.005-.008.013-.015.02-.025.135-.17.285-.362.45-.572.3-.372.49-.625.58-.767.06-.1.185-.3.067-.375a.28.28,0,0,0-.207-.09h-.005c-.2,0-.46.175-.819.545a3.494,3.494,0,0,0-.575.752c-.24.1-.422.177-.527.227a4,4,0,0,0-.4.145,14,14,0,0,1-1.524.542c-.14.047-.352.1-.632.165a2.106,2.106,0,0,1-.772.042.289.289,0,0,1-.287-.325,1.349,1.349,0,0,1,.232-.627,12.21,12.21,0,0,1,.852-1.307,3.046,3.046,0,0,0,.385-.552.275.275,0,0,0-.047-.355c-.307-.245-.742.19-1.042.54a4.9,4.9,0,0,0-.712,1.034,2.134,2.134,0,0,0-.247,1.259.851.851,0,0,0,.867.734l.122,0a3.544,3.544,0,0,0,1.047-.147,20.371,20.371,0,0,0,2.451-.922c-.052.117-.1.235-.15.362-.152.415-.17.637-.062.744a.214.214,0,0,0,.145.082c.047,0,.1-.022.242-.137.095-.077.23-.192.41-.347a10.01,10.01,0,0,1,2.128-1.551,2.755,2.755,0,0,1,.8-.325.6.6,0,0,1,.082-.015,2.2,2.2,0,0,1-.135.345c-.322.717-.407,1.209-.262,1.5.1.195.33.4.884.265.11-.035.29-.112.537-.225s.507-.237.779-.382.507-.267.707-.38c.327-.182.352-.2.352-.277A.159.159,0,0,0,364.352,204.429Z" transform="translate(-337.678 -201.304)" fill="#253871"/>
      <path id="Path_257" data-name="Path 257" d="M307.625,224.034c-.02-.085-.115-.1-.147-.11-.072-.012-.185-.02-.35-.03s-.367,0-.615,0-.535.017-.864.037-.674.042-1.074.075c-.1,0-.222.005-.35.008.067-.085.155-.185.262-.307a6.531,6.531,0,0,0,.615-.817c.127-.215.135-.38.025-.492-.152-.135-.357-.085-.62.147a14.366,14.366,0,0,0-1.374,1.576c-.65.08-1.656.19-3.06.33-.037,0-.092.005-.16.007a.218.218,0,0,0-.152.075.157.157,0,0,0-.02.135l.017.032a4.394,4.394,0,0,1,.719,3.233c-.185.042-.465.122-.854.25-.047.012-.127.037-.235.072a2.458,2.458,0,0,0-.3.127l-.375.127c-.632.257-1.257.532-1.854.814l-.417.207-.21-.085a3.094,3.094,0,0,1-.707-.46c.1-.295.467-.6,1.087-.919a3.439,3.439,0,0,1,1.272-.275,1.045,1.045,0,0,0,.3.007.131.131,0,0,0,.092-.062.184.184,0,0,0,.012-.155c-.13-.332-.625-.387-1.514-.172a3.253,3.253,0,0,0-1.164.51,1.514,1.514,0,0,0-.729.922c-.1.075-.215.152-.33.222a7.888,7.888,0,0,1-1.2.674,2.932,2.932,0,0,1-1.337.275,1.326,1.326,0,0,1-.809-.3.842.842,0,0,1-.287-.767.2.2,0,0,1,.025-.075.259.259,0,0,1,.085-.037,2.241,2.241,0,0,0,1.264-.707.457.457,0,0,0,.155-.435l-.012-.032a.423.423,0,0,0-.477-.19,2.1,2.1,0,0,0-.612.2,1.948,1.948,0,0,0-.909.877,1.429,1.429,0,0,0-.017,1.147,1.475,1.475,0,0,0,1.381.909c.075,0,.152-.005.227-.012a4.759,4.759,0,0,0,1.841-.57,3.637,3.637,0,0,0,.6-.362c.167-.127.33-.252.485-.375a1.736,1.736,0,0,0,.937.6l-.085.062c-.7.5-1.019.927-.977,1.324.072.3.362.452.869.452a2.494,2.494,0,0,0,1.529-.56.642.642,0,0,0,.165-.707,1.367,1.367,0,0,0-.425-.577l-.172-.115c.57-.3,1.112-.565,1.614-.774.06-.025.127-.055.2-.092a2.337,2.337,0,0,1,.25-.1c.092-.03.155-.055.19-.067a1.4,1.4,0,0,0,.167-.055,1.338,1.338,0,0,0,.2-.087c.055-.017.155-.05.307-.1.277-.092.49-.155.625-.19.025-.007.042-.012.062-.02a3.2,3.2,0,0,1-.085.33,3.231,3.231,0,0,0-.087.392,3.058,3.058,0,0,1-.19.515,6.3,6.3,0,0,0-.517,1.606.435.435,0,0,0,.127.362c.1.085.155.115.21.115s.122-.02.155-.165c.007-.05.037-.19.087-.417a6.16,6.16,0,0,1,.747-2.081,22.942,22.942,0,0,1,2.258-3.577,9.664,9.664,0,0,1,.632-.762.531.531,0,0,1,.287-.147c.674-.08,1.644-.142,2.883-.195.152-.007.282-.017.4-.025.185-.007.227-.02.25-.042A.163.163,0,0,0,307.625,224.034Zm-16.47,4.344a2.082,2.082,0,0,1,.615-.422,1.124,1.124,0,0,1,.21-.075c.02,0,.012.03-.03.092a1.555,1.555,0,0,1-.54.4.953.953,0,0,1-.27.1h-.075ZM297,230.572c.047.172.042.385-.362.522a2.8,2.8,0,0,1-.894.19,1.546,1.546,0,0,1-.342,0c-.11-.007-.152-.047-.172-.085.05-.29.375-.657.974-1.079l.1-.072.14.075A1.615,1.615,0,0,1,297,230.572Zm5.646-5.816,0,.005c-.35.48-.707,1.029-1.062,1.626-.235.412-.455.814-.652,1.184a4.615,4.615,0,0,0-.067-1.386,6.893,6.893,0,0,0-.532-1.339c.5-.032,1.087-.085,1.729-.147.235-.037.467-.067.7-.1C302.726,224.646,302.689,224.7,302.646,224.756Z" transform="translate(-290.304 -216.307)" fill="#253871"/>
    </g>
  </g>
  <g id="Group_52" data-name="Group 52" transform="translate(0 109.441)">
    <path id="Path_258" data-name="Path 258" d="M63.335,491.31c-1.524.217-1.744.392-2.331,2.178-.719,2.178-2.461,7.709-3.66,11.609H56.6c-1.132-3.4-2.591-7.6-3.725-10.824-1.264,3.747-2.548,7.469-3.682,10.824h-.719c-1.089-3.747-2.331-7.819-3.507-11.631-.567-1.764-.807-2-2.221-2.156v-.61h5.383v.61c-1.611.175-1.656.415-1.351,1.5.849,2.94,1.721,5.838,2.613,8.908,1.2-3.462,2.506-7.252,3.615-10.824h.7c1.219,3.7,2.438,7.145,3.7,10.847.914-2.9,2.156-6.775,2.636-8.669.327-1.264.152-1.546-1.7-1.764v-.61h4.989Z" transform="translate(-42.75 -489.196)" fill="#253871"/>
    <path id="Path_259" data-name="Path 259" d="M125.5,504.264v-.61c1.371-.13,1.524-.24,1.524-1.721v-4.487c0-1.352-.065-1.436-1.371-1.656v-.522a14.207,14.207,0,0,0,3.093-.872v7.537c0,1.481.152,1.591,1.569,1.721v.61Zm2.266-12a1.192,1.192,0,0,1-1.154-1.154,1.177,1.177,0,0,1,1.177-1.2,1.139,1.139,0,0,1,1.112,1.2A1.159,1.159,0,0,1,127.766,492.263Z" transform="translate(-104.828 -488.604)" fill="#253871"/>
    <path id="Path_260" data-name="Path 260" d="M155.343,517.67v-.61c1.264-.13,1.394-.282,1.394-1.764V511.7c0-1.524-.545-2.548-1.981-2.548a3.814,3.814,0,0,0-2.418,1.132v5.1c0,1.5.13,1.546,1.416,1.676v.61h-4.7v-.61c1.436-.152,1.569-.24,1.569-1.676V510.9c0-1.416-.152-1.481-1.329-1.676v-.567a12.36,12.36,0,0,0,3.05-.872V509.5c.435-.3.914-.632,1.481-1a3.34,3.34,0,0,1,1.809-.654c1.741,0,2.83,1.287,2.83,3.4v4.139c0,1.481.13,1.546,1.394,1.676v.61h-4.512Z" transform="translate(-122.495 -502.009)" fill="#253871"/>
    <path id="Path_261" data-name="Path 261" d="M208.37,499.8a23.131,23.131,0,0,0-3.375.807v-1.416c-.392.24-.959.545-1.351.784a3.95,3.95,0,0,1-1.721.632,4.539,4.539,0,0,1-4.052-4.791,5.491,5.491,0,0,1,5.641-5.294,4.4,4.4,0,0,1,1.481.24v-3.2c0-1.394-.152-1.436-1.7-1.569v-.567a21.548,21.548,0,0,0,3.42-.742v13.135c0,1.132.152,1.284.959,1.329l.7.042v.61Zm-3.378-7.317a2.726,2.726,0,0,0-2.286-1.112c-1.047,0-2.9.7-2.9,3.832,0,2.636,1.634,4.03,3.028,4.052a3.909,3.909,0,0,0,2.156-.784Z" transform="translate(-159.119 -484.68)" fill="#253871"/>
    <path id="Path_262" data-name="Path 262" d="M281.835,491.31c-1.524.217-1.741.392-2.331,2.178-.719,2.178-2.461,7.709-3.66,11.609H275.1c-1.132-3.4-2.593-7.6-3.725-10.824-1.264,3.747-2.548,7.469-3.682,10.824h-.719c-1.089-3.747-2.331-7.819-3.507-11.631-.567-1.764-.807-2-2.221-2.156v-.61h5.381v.61c-1.611.175-1.656.415-1.352,1.5.849,2.94,1.721,5.838,2.613,8.908,1.2-3.462,2.506-7.252,3.615-10.824h.7c1.219,3.7,2.438,7.145,3.7,10.847.914-2.9,2.156-6.775,2.636-8.669.327-1.264.152-1.546-1.7-1.764v-.61h4.989v.61Z" transform="translate(-206.666 -489.196)" fill="#253871"/>
    <path id="Path_263" data-name="Path 263" d="M346.134,516.022a4.966,4.966,0,0,1-3.615,2.113c-2.658,0-4.269-2.178-4.269-4.682a5.59,5.59,0,0,1,1.416-3.812,4.468,4.468,0,0,1,3.245-1.591,3.4,3.4,0,0,1,3.333,3.375c-.022.435-.087.632-.435.719-.435.087-3.223.282-5.816.37-.065,2.918,1.721,4.117,3.268,4.117a3.671,3.671,0,0,0,2.526-1.112Zm-3.747-7.142c-1,0-1.981.937-2.288,2.7,1.219,0,2.441,0,3.725-.065.392,0,.522-.11.522-.435A2.022,2.022,0,0,0,342.387,508.879Z" transform="translate(-264.43 -502.212)" fill="#253871"/>
    <path id="Path_264" data-name="Path 264" d="M381.681,510.9c-.392-1.264-.959-2.133-2.286-2.133a1.323,1.323,0,0,0-1.351,1.416c0,.937.632,1.371,1.851,1.939,1.874.892,2.81,1.546,2.81,2.983,0,2-1.829,3.028-3.55,3.028a5.733,5.733,0,0,1-2.593-.609c-.107-.632-.3-1.829-.392-2.548l.632-.107c.392,1.394,1.154,2.526,2.678,2.526A1.453,1.453,0,0,0,381,515.914c0-.979-.587-1.481-1.741-2.048-1.524-.739-2.765-1.436-2.765-3.005,0-1.589,1.352-2.81,3.4-2.81a11.25,11.25,0,0,1,2.091.282c.065.522.217,1.894.327,2.418Z" transform="translate(-292.877 -502.212)" fill="#253871"/>
    <path id="Path_265" data-name="Path 265" d="M411.1,508.828a2.212,2.212,0,0,1-.937.282c-1.394,0-2.133-.849-2.133-2.593v-6.338h-1.5l-.087-.262.587-.632h1v-1.829c.415-.435,1.044-1,1.459-1.436l.327.042c-.042.914-.065,2.178-.065,3.223h2.483a.685.685,0,0,1-.13.894H409.75v5.576c0,1.764.7,2.091,1.264,2.091a3.117,3.117,0,0,0,1.329-.35l.195.567Z" transform="translate(-315.585 -493.187)" fill="#253871"/>
    <path id="Path_266" data-name="Path 266" d="M468.988,500.457a27.551,27.551,0,0,1-1.2,3.29,19.922,19.922,0,0,1-3.987.522c-5.206,0-7.862-3.462-7.862-7.275,0-4.444,3.375-7.514,8.256-7.514a22.4,22.4,0,0,1,4.117.5c.087.979.24,2.288.415,3.375l-.674.152c-.435-1.459-.959-2.353-2.068-2.81a5.939,5.939,0,0,0-2.286-.415c-3.595,0-5.488,2.658-5.488,6.25,0,4.2,2.178,6.9,5.706,6.9,2.221,0,3.31-1.024,4.422-3.2Z" transform="translate(-352.719 -488.281)" fill="#253871"/>
    <path id="Path_267" data-name="Path 267" d="M523.1,518.143a1.594,1.594,0,0,1-1.024-.415,2.032,2.032,0,0,1-.522-.979c-.872.587-1.939,1.394-2.613,1.394a2.671,2.671,0,0,1-2.658-2.678,2.217,2.217,0,0,1,1.786-2.178,17.137,17.137,0,0,0,3.442-1.416v-.435c0-1.546-.784-2.438-1.916-2.438a1.26,1.26,0,0,0-1.024.5,4.637,4.637,0,0,0-.587,1.416.6.6,0,0,1-.632.5,1.047,1.047,0,0,1-.959-.959c0-.3.282-.567.719-.872a9.11,9.11,0,0,1,3.138-1.524,2.861,2.861,0,0,1,2.94,3.113v4.2c0,1,.37,1.307.762,1.307a1.708,1.708,0,0,0,.784-.24l.217.61Zm-1.589-5.511c-.48.24-1.524.7-2.026.914-.827.37-1.329.784-1.329,1.589a1.584,1.584,0,0,0,1.569,1.676,2.9,2.9,0,0,0,1.786-.784Z" transform="translate(-397.985 -502.219)" fill="#253871"/>
    <path id="Path_268" data-name="Path 268" d="M555.746,490.788V490.2a5.6,5.6,0,0,1,1.916-4.357,4.523,4.523,0,0,1,2.438-1.154,2.43,2.43,0,0,1,1.764.7.7.7,0,0,1,.13.762,1.738,1.738,0,0,1-.522.7.5.5,0,0,1-.632-.042,2.818,2.818,0,0,0-1.764-.894c-1.611,0-1.611,2.2-1.611,3.855v1.024h2.308a.832.832,0,0,1-.217.894h-2.091v6.3c0,1.569.24,1.589,1.874,1.764v.61H554.22v-.61c1.371-.13,1.524-.217,1.524-1.634v-6.425H554.2l-.087-.24.48-.654h1.157Z" transform="translate(-426.365 -484.688)" fill="#253871"/>
    <path id="Path_269" data-name="Path 269" d="M588.084,516.022a4.966,4.966,0,0,1-3.615,2.113c-2.658,0-4.269-2.178-4.269-4.682a5.59,5.59,0,0,1,1.416-3.812,4.468,4.468,0,0,1,3.245-1.591,3.4,3.4,0,0,1,3.333,3.375c-.023.435-.087.632-.435.719-.435.087-3.223.282-5.816.37-.065,2.918,1.721,4.117,3.268,4.117a3.671,3.671,0,0,0,2.526-1.112Zm-3.747-7.142c-1,0-1.981.937-2.288,2.7,1.219,0,2.441,0,3.725-.065.392,0,.522-.11.522-.435A2.024,2.024,0,0,0,584.337,508.879Z" transform="translate(-445.937 -502.212)" fill="#253871"/>
  </g>
</svg>
