<svg width="32" height="32" viewBox="0 0 32 32" fill="none" xmlns="http://www.w3.org/2000/svg">
<path d="M16 11.3185C13.4597 11.3185 11.3549 13.387 11.3549 15.9636C11.3549 18.5403 13.4234 20.6088 16 20.6088C18.5766 20.6088 20.6452 18.504 20.6452 15.9636C20.6452 13.4233 18.5403 11.3185 16 11.3185ZM16 18.9394C14.367 18.9394 13.0242 17.5967 13.0242 15.9636C13.0242 14.3306 14.367 12.9878 16 12.9878C17.6331 12.9878 18.9758 14.3306 18.9758 15.9636C18.9758 17.5967 17.6331 18.9394 16 18.9394Z" fill="white"/>
<path d="M20.8267 12.2621C21.4079 12.2621 21.8791 11.7909 21.8791 11.2096C21.8791 10.6284 21.4079 10.1572 20.8267 10.1572C20.2455 10.1572 19.7743 10.6284 19.7743 11.2096C19.7743 11.7909 20.2455 12.2621 20.8267 12.2621Z" fill="white"/>
<path d="M23.5484 8.4879C22.6048 7.50806 21.2621 7 19.7379 7H12.2621C9.10484 7 7 9.10484 7 12.2621V19.7016C7 21.2621 7.50806 22.6048 8.52419 23.5847C9.50403 24.5282 10.8105 25 12.2984 25H19.7016C21.2621 25 22.5685 24.4919 23.5121 23.5847C24.4919 22.6411 25 21.2984 25 19.7379V12.2621C25 10.7379 24.4919 9.43145 23.5484 8.4879ZM23.4032 19.7379C23.4032 20.8629 23.004 21.7702 22.3508 22.3871C21.6976 23.004 20.7903 23.3306 19.7016 23.3306H12.2984C11.2097 23.3306 10.3024 23.004 9.64919 22.3871C8.99597 21.7339 8.66935 20.8266 8.66935 19.7016V12.2621C8.66935 11.1734 8.99597 10.2661 9.64919 9.6129C10.2661 8.99597 11.2097 8.66935 12.2984 8.66935H19.7742C20.8629 8.66935 21.7702 8.99597 22.4234 9.64919C23.0403 10.3024 23.4032 11.2097 23.4032 12.2621V19.7379Z" fill="white"/>
<rect x="0.5" y="0.5" width="31" height="31" rx="15.5" stroke="white"/>
</svg>
