<svg id="WWC_-_Logo_Variation_-_Horizontal" data-name="WWC - Logo Variation - Horizontal" xmlns="http://www.w3.org/2000/svg" width="182" height="69.474" viewBox="0 0 182 69.474">
  <path id="Path_198" data-name="Path 198" d="M122.2,48.66l.157.039a33,33,0,0,1,5.352.611,32.44,32.44,0,0,1,16.035,8.382,32.49,32.49,0,0,1,8.387,13.174,30.132,30.132,0,0,1,1.379,5.806c.14,1.075.235,2.158.307,3.24a27.23,27.23,0,0,1-.041,3.872,32.635,32.635,0,0,1-6.237,17.015l-.08.1-.077-.063-.082-.095a31.807,31.807,0,0,0,6.068-20.06,31.219,31.219,0,0,0-6.658-18.406,31.617,31.617,0,0,0-32.433-11.522A31.98,31.98,0,0,0,90.052,77.62H88.99c.024-.2.044-.409.07-.613A32.731,32.731,0,0,1,111.011,50.35a32.52,32.52,0,0,1,9.28-1.652.919.919,0,0,0,.177-.039H122.2Z" transform="translate(-78.273 -48.66)" fill="#253871"/>
  <path id="Path_199" data-name="Path 199" d="M88.66,195.767c.334-.039.643-.078.96-.117.044.4.08.776.121,1.148a29.349,29.349,0,0,0,.767,4.22,31.984,31.984,0,0,0,22.874,23.088,28.42,28.42,0,0,0,4.462.822c.888.088,1.782.126,2.675.153.813.024,1.63.034,2.443-.012.975-.056,1.947-.175,2.919-.282.16-.017.215.041.264.2A32.652,32.652,0,0,1,88.66,195.767" transform="translate(-78.023 -159.896)" fill="#253871"/>
  <path id="Path_200" data-name="Path 200" d="M249.79,300.858a3.441,3.441,0,0,1-.566.6,2.435,2.435,0,0,1-.791.428,2.22,2.22,0,0,1-.861.117,1.148,1.148,0,0,1-.689-.282,1.05,1.05,0,0,1-.334-.533,1.768,1.768,0,0,1-.092-.615,3.268,3.268,0,0,1,.273-1.309,2.574,2.574,0,0,1,.36-.666,1.445,1.445,0,0,1,.307-.316.766.766,0,0,1,.235-.136.843.843,0,0,1,.273-.056l.017,0h.048l.056.017.089.024.022.012.048.034.029.029.036.039.027.022a.54.54,0,0,1,.118.311,1.269,1.269,0,0,1-.015.331,1.677,1.677,0,0,1-.116.348l-.077.071-.111.032-.082-.039,0-.09,0-.01a.94.94,0,0,0,.135-.572.358.358,0,0,0-.092-.224.227.227,0,0,0-.206-.068l-.111.032-.123.071a1.189,1.189,0,0,0-.223.231,2.6,2.6,0,0,0-.3.586,3.413,3.413,0,0,0-.227,1.206,1.3,1.3,0,0,0,.363.988.88.88,0,0,0,.513.209,1.821,1.821,0,0,0,.672-.08,2.447,2.447,0,0,0,.636-.321l.155-.109.089-.078.056-.049a1.42,1.42,0,0,0,.169-.173l.085-.085a4.011,4.011,0,0,0,.682-1.216,5.808,5.808,0,0,0,.285-1.248l.039-.051.077-.039.068.012.01.051,0,.01a9.979,9.979,0,0,1-.307,1.27,4.811,4.811,0,0,1-.648,1.282" transform="translate(-197.655 -237.419)" fill="#253871"/>
  <path id="Path_201" data-name="Path 201" d="M268.3,284.136l0,.063a7.325,7.325,0,0,1-.769,1.43,5.8,5.8,0,0,1-1.055,1.231,4.876,4.876,0,0,1-.641.452,1.284,1.284,0,0,1-.7.231.673.673,0,0,1-.556-.362l-.019-.053-.01-.027c-.063.158-.128.3-.2.448a6.028,6.028,0,0,1-.672,1.036,4.838,4.838,0,0,1-.443.45,1.693,1.693,0,0,1-.551.326.587.587,0,0,1-.324.024.459.459,0,0,1-.276-.175.965.965,0,0,1-.126-.657,2.028,2.028,0,0,1,.177-.647,3.062,3.062,0,0,1,.3-.581,3.932,3.932,0,0,1,.839-.934,3.639,3.639,0,0,1,1.974-.871l.058.027.024.066-.041.075-.053.036a4.647,4.647,0,0,0-1.775,1.014,4,4,0,0,0-.665.817,2.3,2.3,0,0,0-.339.9.5.5,0,0,0,.044.316.232.232,0,0,0,.213.085,1.152,1.152,0,0,0,.389-.168,2.158,2.158,0,0,0,.4-.326,3.361,3.361,0,0,0,.655-.893,1.8,1.8,0,0,0,.2-.961l.007-.022,0-.012,0-.036.053-.134a.328.328,0,0,1,.135-.092l.109.024.041.119,0,.015a1.386,1.386,0,0,0,.106.6.478.478,0,0,0,.385.3,1.068,1.068,0,0,0,.583-.185,4.4,4.4,0,0,0,.593-.4,6.006,6.006,0,0,0,1.033-1.148,7.461,7.461,0,0,0,.757-1.374l.036-.041.058-.024Z" transform="translate(-209.402 -226.832)" fill="#253871"/>
  <path id="Path_202" data-name="Path 202" d="M287.633,271.426l-.068.056-.056.051-.114.088a.858.858,0,0,1-.329.139.924.924,0,0,1-.322-.012,1.67,1.67,0,0,1-.22-.095,1.357,1.357,0,0,1-.3-.258,1.762,1.762,0,0,1-.218-.287,6.6,6.6,0,0,1-.348-.625,11.1,11.1,0,0,1-.5-1.3,26.609,26.609,0,0,1-.682-2.736q-.247-1.255-.418-2.549l-.148-.075-.034.027-.073.046a2.743,2.743,0,0,1-.418.282l-.128.063-.1.017-.056-.017-.034-.039-.012-.061.022-.056,0-.024.046-.1a.73.73,0,0,1,.157-.2.549.549,0,0,1,.278-.146.66.66,0,0,1,.266-.007l.106.027.077-.071c-.106-.912-.2-1.839-.266-2.761-.068-.963-.1-1.922-.114-2.9a25.919,25.919,0,0,1,.148-2.95,14.051,14.051,0,0,1,.266-1.518,3.952,3.952,0,0,1,.247-.771,1.789,1.789,0,0,1,.191-.394,1.76,1.76,0,0,1,.3-.392l.012-.007.114-.09a.511.511,0,0,1,.155-.075.285.285,0,0,1,.181-.019.251.251,0,0,1,.138.056.35.35,0,0,1,.138.158.689.689,0,0,1,.065.17,2.385,2.385,0,0,1,.123.713,11.184,11.184,0,0,1-.048,1.479,20.786,20.786,0,0,1-.542,3.019c-.121.506-.276,1.007-.438,1.523-.15.477-.331.956-.513,1.438v.1a3.051,3.051,0,0,0,.036.341q.105,1.259.251,2.5c.346-.3.668-.618.989-.939.438-.438.851-.9,1.233-1.35A15.051,15.051,0,0,0,288.572,258l.068-.056.085-.019.048.032.01.051a8.284,8.284,0,0,1-.854,1.513c-.341.479-.713.951-1.108,1.413a26.466,26.466,0,0,1-2.324,2.408,5.384,5.384,0,0,0,.092.684c.111.1.227.214.341.316a9.7,9.7,0,0,1,.9,1.085,7.684,7.684,0,0,1,.742,1.185c.227.406.428.822.617,1.248a11.086,11.086,0,0,1,.5,1.3,6.366,6.366,0,0,1,.174.688,3.463,3.463,0,0,1,.07.737,1.537,1.537,0,0,1-.06.4,1.2,1.2,0,0,1-.239.445m-3.9-7.645.022-.022a.647.647,0,0,0-.206,0,.342.342,0,0,0-.155.075l-.1.151-.056.083v.034l.077-.036a3.832,3.832,0,0,0,.4-.26Zm.377-4.383c.08-.195.155-.4.232-.606.184-.5.339-1,.493-1.506a19.691,19.691,0,0,0,.59-2.987,8.278,8.278,0,0,0,.039-1.464,2.65,2.65,0,0,0-.131-.664.489.489,0,0,0-.164-.243l-.044-.024,0-.01-.012.007-.012,0-.133.088a1.968,1.968,0,0,0-.4.679,7.174,7.174,0,0,0-.218.732,10.786,10.786,0,0,0-.22,1.484,28.153,28.153,0,0,0-.085,2.919c.019.53.041,1.068.073,1.591m3.374,11.6a1.323,1.323,0,0,0,.058-.341,3.582,3.582,0,0,0-.036-.7c-.044-.224-.089-.45-.152-.676a12.631,12.631,0,0,0-1.033-2.544,7.416,7.416,0,0,0-.713-1.187,8.968,8.968,0,0,0-.868-1.08l-.126-.129c.1.659.206,1.313.339,1.953.174.922.389,1.827.638,2.712a11.291,11.291,0,0,0,.479,1.292,5.227,5.227,0,0,0,.319.6,1.544,1.544,0,0,0,.438.482.367.367,0,0,0,.254.066l.119-.046.073-.046.051-.058a.742.742,0,0,0,.162-.292" transform="translate(-225.406 -202.293)" fill="#253871"/>
  <path id="Path_203" data-name="Path 203" d="M308.99,270.345a4.5,4.5,0,0,1-.837.53,3.729,3.729,0,0,1-.95.328,1.9,1.9,0,0,1-.5.019,1.128,1.128,0,0,1-.435-.148,1.062,1.062,0,0,1-.426-.623,2.648,2.648,0,0,1,.053-1.5,3.974,3.974,0,0,1,.339-.781,2.483,2.483,0,0,1,.271-.389,1.707,1.707,0,0,1,.4-.36,1.12,1.12,0,0,1,.285-.129.693.693,0,0,1,.331-.036.478.478,0,0,1,.237.131.353.353,0,0,1,.08.2.825.825,0,0,1-.014.4,1.872,1.872,0,0,1-.155.4,2.427,2.427,0,0,1-.564.735,3.1,3.1,0,0,1-.863.542l-.012.007a2.3,2.3,0,0,0,.06.62,1.007,1.007,0,0,0,.317.5.884.884,0,0,0,.641.182,1.7,1.7,0,0,0,.428-.063,2.136,2.136,0,0,0,.416-.158,3.822,3.822,0,0,0,.776-.491,5.453,5.453,0,0,0,.651-.618,6.507,6.507,0,0,0,.527-.681,3.2,3.2,0,0,0,.368-.718,2.1,2.1,0,0,0,.179-.715l.027-.046.046-.034.051.01.022.044a3.109,3.109,0,0,1-.532,1.491,5.48,5.48,0,0,1-1.214,1.362m-2.743-.929a2.308,2.308,0,0,0,1.168-1.061.883.883,0,0,0,.1-.652.19.19,0,0,0-.15-.151l-.128.029-.14.068a1.228,1.228,0,0,0-.273.255,3.2,3.2,0,0,0-.208.326,2.762,2.762,0,0,0-.278.705,4.635,4.635,0,0,0-.09.479" transform="translate(-242.615 -214.079)" fill="#253871"/>
  <path id="Path_204" data-name="Path 204" d="M100.749,109.927c.327.287.092.448-.356.428-3.432-.148-5.959-.073-9.5,2.143A27.138,27.138,0,0,0,85,117.231a35.575,35.575,0,0,0-5.139,6.665c-1.7,2.724-3.12,4.9-3.671,5.633a1.042,1.042,0,0,1-.975.4c-1.584-.214-5.652-1.114-9.7-1.844a32.236,32.236,0,0,0-10.332-.409c-3.159.372-7.268,2.749-9.836,4.989-.331.289-.81.17-.624-.221.936-1.987,3.635-5.9,7.4-7.3,3.8-1.416,7.493-.684,10.172-.182,3.785.71,11.546,3.084,12.484,2.724.755-.292,4.392-7.3,6.52-10.4,3.115-4.544,5.3-6.74,7.609-8.146,3.021-1.841,11.2.212,11.846.783" transform="translate(-44.678 -93.864)" fill="#253871"/>
  <path id="Path_205" data-name="Path 205" d="M171.009,132.768c.16.178.022.251-.22.212a10.89,10.89,0,0,0-5.492.54c-1.555.72-1.451.827-3.105,2.2a22.042,22.042,0,0,0-3.454,3.422c-1.093,1.386-2,2.491-2.348,2.858a.571.571,0,0,1-.556.161c-.854-.214-3.026-.956-5.2-1.6a17.753,17.753,0,0,0-5.628-.854,11.754,11.754,0,0,0-5.684,2.131c-.2.139-.455.044-.329-.161a8.38,8.38,0,0,1,4.489-3.544,10.127,10.127,0,0,1,5.577.521c2.029.618,6.133,2.391,6.668,2.252.43-.114,2.871-3.885,4.194-5.3,2-2.131,3.3-3.364,4.653-3.994,1.761-.822,6.112.8,6.433,1.153" transform="translate(-116.158 -111.264)" fill="#253871"/>
  <g id="Group_1" data-name="Group 1" transform="translate(52.168 22.269)">
    <path id="Path_206" data-name="Path 206" d="M262.2,148.738l.068-.041a.059.059,0,0,1,.089.066c-.017.068-.039.08-.039.08s-.075.1-.131.1-.116-.061-.167-.151a1.276,1.276,0,0,1-.157-.739c.029-.518.075-1.034.114-1.549a.528.528,0,0,0,0-.151c-.012.015-.027.032-.036.046-.135.2-.264.4-.4.593a1.647,1.647,0,0,1-.527.491.238.238,0,0,1-.2.022.545.545,0,0,1-.426-.569,1.679,1.679,0,0,1,.227-.827,1.736,1.736,0,0,1,.711-.754.956.956,0,0,1,.566-.095.134.134,0,0,1,.073.044c.056.056.065.056.111-.01a2.122,2.122,0,0,0,.3-.72c.133-.53.252-1.065.389-1.593a12.172,12.172,0,0,1,.791-2.25,2.938,2.938,0,0,1,.206-.36c.131-.195.218-.195.423-.09a.375.375,0,0,1,.07.056.237.237,0,0,1,.089.219,5.853,5.853,0,0,1-.358,1.476c-.271.739-.563,1.469-.892,2.184-.027.056-.073.148-.1.2a5.886,5.886,0,0,0-.443,1.175,6.391,6.391,0,0,0-.148.834c-.068.484-.135.968-.184,1.452-.027.265-.015.535-.017.8C262.19,148.7,262.194,148.714,262.2,148.738Zm-1.451-1.464a3.825,3.825,0,0,0,1.069-1.428.192.192,0,0,0-.029-.224s-.007-.007-.01-.012c-.039-.046-.07-.051-.116-.012-.1.08-.2.148-.3.231A1.842,1.842,0,0,0,260.748,147.274Zm3.1-6.183a5.951,5.951,0,0,0-.668,1.817A9.972,9.972,0,0,0,263.849,141.09Z" transform="translate(-260.377 -140.213)" fill="#253871"/>
  </g>
  <g id="Group_2" data-name="Group 2" transform="translate(34.219 26.078)">
    <path id="Path_207" data-name="Path 207" d="M236.444,156.361l.024,0h.027a.227.227,0,0,0,.254-.226c0-.071-.01-.241-.273-.27a.227.227,0,0,0-.189.141l0,.01A.261.261,0,0,0,236.444,156.361Z" transform="translate(-224.152 -155.87)" fill="#253871"/>
    <path id="Path_208" data-name="Path 208" d="M238.239,160.227a.117.117,0,0,0-.109-.01c-.039.015-.121.049-.244.107a3.505,3.505,0,0,1-1.427.53s0-.007,0-.041a2.27,2.27,0,0,1,.186-.674c.135-.306.16-.486.077-.581-.181-.314-.711-.058-.885.027a6.942,6.942,0,0,0-1.487,1.019.074.074,0,0,0,.012-.017c.092-.117.2-.248.307-.394.206-.258.336-.431.4-.528.041-.066.128-.2.046-.258a.2.2,0,0,0-.143-.063h0c-.135,0-.314.119-.561.375a2.408,2.408,0,0,0-.394.518l-.36.156a2.76,2.76,0,0,0-.273.1,10.257,10.257,0,0,1-1.042.375,4.215,4.215,0,0,1-.433.112,1.469,1.469,0,0,1-.53.029.2.2,0,0,1-.2-.224.958.958,0,0,1,.16-.433,8.388,8.388,0,0,1,.583-.9,2.038,2.038,0,0,0,.264-.379.188.188,0,0,0-.034-.243c-.21-.168-.508.131-.713.372a3.281,3.281,0,0,0-.486.713,1.476,1.476,0,0,0-.169.868.584.584,0,0,0,.593.506h.085a2.38,2.38,0,0,0,.716-.1,14.057,14.057,0,0,0,1.676-.635c-.036.08-.073.163-.1.251-.1.285-.116.438-.044.513a.149.149,0,0,0,.1.058c.031,0,.068-.015.167-.095.065-.054.157-.131.281-.238a6.822,6.822,0,0,1,1.456-1.068,1.91,1.91,0,0,1,.549-.224.218.218,0,0,1,.056-.01,1.5,1.5,0,0,1-.092.238c-.22.494-.278.832-.179,1.031.068.134.225.275.6.182.075-.024.2-.078.368-.153s.346-.163.535-.263.346-.185.484-.263c.223-.127.242-.141.242-.19A.088.088,0,0,0,238.239,160.227Z" transform="translate(-219.982 -158.071)" fill="#253871"/>
    <path id="Path_209" data-name="Path 209" d="M198.018,174.089a.113.113,0,0,0-.1-.075,1.825,1.825,0,0,0-.239-.019c-.109,0-.252,0-.421,0s-.365.012-.593.027-.462.029-.735.051c-.073,0-.152,0-.239,0,.046-.058.106-.126.179-.212a4.56,4.56,0,0,0,.421-.562c.087-.148.092-.26.017-.341-.1-.092-.244-.058-.423.1a10.015,10.015,0,0,0-.941,1.085c-.445.056-1.134.131-2.094.226-.027,0-.063,0-.109,0a.158.158,0,0,0-.1.051.111.111,0,0,0-.015.092l.012.024a3.052,3.052,0,0,1,.493,2.226c-.126.029-.317.085-.585.17l-.162.049a1.876,1.876,0,0,0-.206.088l-.256.088c-.433.178-.859.365-1.27.559l-.285.141-.145-.058a2.121,2.121,0,0,1-.484-.316c.07-.2.319-.416.745-.632a2.312,2.312,0,0,1,.871-.19.684.684,0,0,0,.206,0,.085.085,0,0,0,.063-.044.138.138,0,0,0,.01-.107c-.089-.229-.428-.268-1.035-.119a2.218,2.218,0,0,0-.8.35,1.043,1.043,0,0,0-.5.635c-.073.051-.148.1-.225.153a5.215,5.215,0,0,1-.825.465,2.005,2.005,0,0,1-.914.19.888.888,0,0,1-.554-.209.577.577,0,0,1-.2-.528.131.131,0,0,1,.017-.051.253.253,0,0,1,.058-.027,1.521,1.521,0,0,0,.866-.486.316.316,0,0,0,.106-.3l-.01-.024a.291.291,0,0,0-.327-.131,1.512,1.512,0,0,0-.418.139,1.333,1.333,0,0,0-.624.6.981.981,0,0,0-.012.788,1.009,1.009,0,0,0,.946.628,1.1,1.1,0,0,0,.155-.01,3.255,3.255,0,0,0,1.26-.392,2.358,2.358,0,0,0,.409-.251c.116-.088.225-.175.331-.258a1.208,1.208,0,0,0,.641.416l-.058.044c-.479.343-.7.637-.67.912.048.207.249.311.595.311a1.7,1.7,0,0,0,1.047-.387.448.448,0,0,0,.114-.486.959.959,0,0,0-.29-.4l-.118-.078c.389-.209.762-.389,1.105-.533.041-.017.087-.039.138-.063a1.576,1.576,0,0,1,.169-.071c.063-.019.106-.039.131-.046s.048-.015.116-.036a1.154,1.154,0,0,0,.135-.061c.039-.012.106-.034.21-.073q.287-.095.428-.131l.044-.015a1.944,1.944,0,0,1-.058.226c-.031.119-.051.209-.06.27a2.1,2.1,0,0,1-.131.355,4.345,4.345,0,0,0-.356,1.1.307.307,0,0,0,.087.251.228.228,0,0,0,.145.078c.029,0,.085-.015.106-.114,0-.034.027-.131.06-.287a4.308,4.308,0,0,1,.51-1.433,15.927,15.927,0,0,1,1.545-2.464,6.232,6.232,0,0,1,.433-.525.366.366,0,0,1,.2-.1c.462-.056,1.125-.1,1.974-.134.1,0,.193-.012.273-.017.126,0,.155-.015.169-.029A.081.081,0,0,0,198.018,174.089Zm-11.275,2.992a1.411,1.411,0,0,1,.421-.289.768.768,0,0,1,.145-.051c.015,0,.01.019-.019.063a1.1,1.1,0,0,1-.37.28.687.687,0,0,1-.184.073h-.051Zm4,1.508c.031.119.029.265-.249.36a1.922,1.922,0,0,1-.612.131.933.933,0,0,1-.235,0c-.075,0-.1-.032-.119-.058.034-.2.256-.452.668-.742l.073-.049.094.051A1.084,1.084,0,0,1,190.746,178.589Zm3.865-4,0,0c-.239.331-.484.708-.728,1.119-.162.285-.312.559-.447.815a3.237,3.237,0,0,0-.046-.953,4.895,4.895,0,0,0-.363-.922c.346-.024.745-.058,1.183-.1.162-.027.319-.046.481-.066C194.666,174.509,194.639,174.543,194.61,174.585Z" transform="translate(-186.163 -168.767)" fill="#253871"/>
  </g>
  <g id="Group_3" data-name="Group 3" transform="translate(84.627 30.235)">
    <path id="Path_210" data-name="Path 210" d="M408.68,177.631c-1.045.151-1.192.27-1.6,1.5-.491,1.5-1.686,5.307-2.506,7.993h-.508c-.776-2.34-1.775-5.232-2.549-7.453-.866,2.578-1.744,5.142-2.52,7.453h-.491c-.745-2.578-1.6-5.383-2.4-8.007-.387-1.214-.551-1.379-1.521-1.484v-.421h3.683v.421c-1.1.119-1.132.285-.924,1.034.58,2.024,1.178,4.018,1.79,6.132.82-2.384,1.715-4.994,2.474-7.453h.476c.834,2.549,1.669,4.918,2.535,7.467.626-1.995,1.475-4.663,1.8-5.967.223-.868.1-1.065-1.163-1.214v-.421h3.415v.421Z" transform="translate(-394.59 -176.176)" fill="#253871"/>
    <path id="Path_211" data-name="Path 211" d="M453.09,186.54v-.421c.938-.09,1.042-.165,1.042-1.185v-3.089c0-.929-.044-.99-.938-1.138v-.36a9.622,9.622,0,0,0,2.116-.6v5.188c0,1.019.1,1.095,1.074,1.185v.421Zm1.553-8.26a.818.818,0,0,1-.791-.8.808.808,0,0,1,.805-.825.78.78,0,0,1,.759.825A.8.8,0,0,1,454.643,178.28Z" transform="translate(-438.942 -175.76)" fill="#253871"/>
    <path id="Path_212" data-name="Path 212" d="M474.04,196.1v-.421c.863-.09.953-.195.953-1.214V191.99c0-1.048-.372-1.754-1.357-1.754a2.6,2.6,0,0,0-1.654.778v3.51c0,1.034.09,1.065.97,1.155v.421H469.73v-.421c.984-.1,1.074-.165,1.074-1.155v-3.089c0-.975-.1-1.019-.909-1.155v-.389a8.306,8.306,0,0,0,2.087-.6v1.185c.3-.209.626-.435,1.013-.691a2.281,2.281,0,0,1,1.238-.45c1.192,0,1.937.885,1.937,2.34v2.848c0,1.019.089,1.065.955,1.155v.421Z" transform="translate(-451.557 -185.318)" fill="#253871"/>
    <path id="Path_213" data-name="Path 213" d="M511.438,183.366a16.022,16.022,0,0,0-2.312.555v-.975c-.268.165-.655.375-.924.54a2.7,2.7,0,0,1-1.178.435,3.117,3.117,0,0,1-2.774-3.3,3.767,3.767,0,0,1,3.862-3.644,2.984,2.984,0,0,1,1.013.165v-2.2c0-.961-.1-.99-1.163-1.08v-.389a14.8,14.8,0,0,0,2.341-.511V182c0,.781.1.885.655.915l.476.029v.421Zm-2.31-5.037a1.862,1.862,0,0,0-1.565-.764c-.716,0-1.983.479-1.983,2.639,0,1.815,1.117,2.773,2.073,2.79a2.667,2.667,0,0,0,1.475-.54Z" transform="translate(-477.728 -172.96)" fill="#253871"/>
    <path id="Path_214" data-name="Path 214" d="M563.153,177.631c-1.042.151-1.192.27-1.6,1.5-.491,1.5-1.686,5.307-2.506,7.993h-.508c-.776-2.34-1.775-5.232-2.549-7.453-.866,2.578-1.744,5.142-2.52,7.453h-.491c-.745-2.578-1.6-5.383-2.4-8.007-.387-1.214-.551-1.379-1.521-1.484v-.421h3.683v.421c-1.1.119-1.132.285-.924,1.034.581,2.024,1.178,4.018,1.79,6.132.82-2.384,1.715-4.994,2.474-7.453h.476c.834,2.549,1.669,4.918,2.535,7.467.626-1.995,1.475-4.663,1.8-5.967.223-.868.1-1.065-1.163-1.214v-.421h3.415v.421Z" transform="translate(-511.701 -176.176)" fill="#253871"/>
    <path id="Path_215" data-name="Path 215" d="M608.916,194.967a3.394,3.394,0,0,1-2.474,1.455,2.987,2.987,0,0,1-2.922-3.223,3.862,3.862,0,0,1,.97-2.625,3.049,3.049,0,0,1,2.22-1.095,2.333,2.333,0,0,1,2.281,2.325c-.015.3-.06.435-.3.494-.3.061-2.206.195-3.981.255-.046,2.009,1.178,2.834,2.237,2.834a2.518,2.518,0,0,0,1.729-.764Zm-2.566-4.918c-.687,0-1.357.645-1.565,1.858.834,0,1.671,0,2.549-.046.268,0,.358-.075.358-.3A1.39,1.39,0,0,0,606.35,190.049Z" transform="translate(-552.99 -185.462)" fill="#253871"/>
    <path id="Path_216" data-name="Path 216" d="M634.093,191.453c-.268-.868-.655-1.469-1.565-1.469a.907.907,0,0,0-.924.975c0,.645.433.944,1.267,1.335,1.282.615,1.923,1.065,1.923,2.055a2.225,2.225,0,0,1-2.431,2.085,3.884,3.884,0,0,1-1.775-.421c-.075-.435-.208-1.26-.268-1.754l.433-.075c.268.961.791,1.739,1.833,1.739a1,1,0,0,0,1.042-1.019c0-.674-.4-1.019-1.192-1.411-1.045-.511-1.894-.99-1.894-2.07a2.07,2.07,0,0,1,2.327-1.934,7.767,7.767,0,0,1,1.432.195c.046.36.15,1.3.222,1.664Z" transform="translate(-573.308 -185.469)" fill="#253871"/>
    <path id="Path_217" data-name="Path 217" d="M654.91,189.78a1.511,1.511,0,0,1-.641.195c-.955,0-1.461-.584-1.461-1.785v-4.364H651.78l-.06-.18.4-.435h.687v-1.26c.283-.3.716-.691,1-.99l.223.029c-.029.63-.046,1.5-.046,2.218h1.7a.472.472,0,0,1-.09.615h-1.611v3.838c0,1.214.476,1.44.863,1.44a2.122,2.122,0,0,0,.909-.241l.133.389Z" transform="translate(-589.532 -179.014)" fill="#253871"/>
    <path id="Path_218" data-name="Path 218" d="M695.669,183.907a19.123,19.123,0,0,1-.82,2.265,13.526,13.526,0,0,1-2.728.36c-3.562,0-5.381-2.384-5.381-5.008,0-3.06,2.312-5.174,5.65-5.174a15.076,15.076,0,0,1,2.818.345c.06.674.164,1.574.283,2.325l-.462.1a2.577,2.577,0,0,0-1.417-1.934,4.053,4.053,0,0,0-1.565-.285c-2.46,0-3.758,1.829-3.758,4.3,0,2.895,1.49,4.753,3.906,4.753,1.521,0,2.266-.705,3.026-2.2Z" transform="translate(-616.083 -175.525)" fill="#253871"/>
    <path id="Path_219" data-name="Path 219" d="M734.058,196.43a1.092,1.092,0,0,1-.7-.285,1.412,1.412,0,0,1-.358-.674,4.709,4.709,0,0,1-1.79.961,1.834,1.834,0,0,1-1.819-1.844,1.526,1.526,0,0,1,1.221-1.5,11.652,11.652,0,0,0,2.356-.975v-.3c0-1.065-.537-1.678-1.311-1.678a.865.865,0,0,0-.7.345,3.179,3.179,0,0,0-.4.975.415.415,0,0,1-.433.345.718.718,0,0,1-.655-.659c0-.209.193-.389.491-.6a6.219,6.219,0,0,1,2.148-1.051,1.961,1.961,0,0,1,2.012,2.143v2.895c0,.691.254.9.522.9a1.183,1.183,0,0,0,.537-.165l.15.421Zm-1.088-3.792c-.329.165-1.042.479-1.386.63-.566.255-.909.54-.909,1.095a1.089,1.089,0,0,0,1.074,1.155,1.988,1.988,0,0,0,1.224-.54C732.969,194.27,732.969,193.34,732.969,192.637Z" transform="translate(-648.418 -185.469)" fill="#253871"/>
    <path id="Path_220" data-name="Path 220" d="M757.245,177.158v-.4a3.868,3.868,0,0,1,1.311-3,3.092,3.092,0,0,1,1.669-.8,1.656,1.656,0,0,1,1.207.479.485.485,0,0,1,.089.525,1.184,1.184,0,0,1-.358.479.339.339,0,0,1-.433-.029,1.923,1.923,0,0,0-1.207-.615c-1.1,0-1.1,1.515-1.1,2.654v.705H760a.573.573,0,0,1-.15.615h-1.432v4.335c0,1.08.165,1.095,1.282,1.214v.421h-3.5v-.421c.938-.09,1.045-.151,1.045-1.124v-4.425h-1.059l-.06-.165.329-.45Z" transform="translate(-668.683 -172.96)" fill="#253871"/>
    <path id="Path_221" data-name="Path 221" d="M779.976,194.967a3.394,3.394,0,0,1-2.474,1.455,2.987,2.987,0,0,1-2.922-3.223,3.862,3.862,0,0,1,.97-2.625,3.049,3.049,0,0,1,2.22-1.095,2.333,2.333,0,0,1,2.281,2.325c-.015.3-.06.435-.3.494-.3.061-2.206.195-3.981.255-.046,2.009,1.178,2.834,2.237,2.834a2.518,2.518,0,0,0,1.729-.764Zm-2.564-4.918c-.687,0-1.357.645-1.565,1.858.834,0,1.671,0,2.549-.046.268,0,.358-.075.358-.3A1.392,1.392,0,0,0,777.412,190.049Z" transform="translate(-682.678 -185.462)" fill="#253871"/>
  </g>
</svg>
