<svg width="32" height="32" viewBox="0 0 32 32" fill="none" xmlns="http://www.w3.org/2000/svg">
<path d="M20.9939 15.6529C20.6437 15.6515 20.3009 15.7541 20.0091 15.9478C19.7173 16.1415 19.4896 16.4176 19.3549 16.7409C19.2202 17.0642 19.1846 17.4203 19.2526 17.7639C19.3206 18.1074 19.4891 18.4231 19.7367 18.6708C19.9844 18.9184 20.3001 19.087 20.6436 19.1549C20.9872 19.2229 21.3433 19.1873 21.6666 19.0526C21.9899 18.9179 22.266 18.6902 22.4597 18.3984C22.6534 18.1066 22.756 17.7638 22.7546 17.4136C22.7528 16.9472 22.5666 16.5004 22.2369 16.1706C21.9071 15.8409 21.4603 15.6547 20.9939 15.6529ZM24.3728 13.7425L25.9838 11.9675H22.3483C20.4812 10.6851 18.2691 9.99914 16.004 10C13.7173 9.99555 11.4821 10.6785 9.58841 11.9603H6.02419L7.62096 13.7068C7.38695 13.9213 7.17664 14.1603 6.99366 14.4197C6.2482 15.4166 5.9023 16.6562 6.02386 17.8951C6.14541 19.134 6.72565 20.2827 7.65066 21.1157C8.57567 21.9488 9.77865 22.406 11.0235 22.3976C12.2683 22.3892 13.465 21.9159 14.3787 21.0705L16.004 22.8312L17.5936 21.0919C18.5315 21.9729 19.7735 22.4576 21.0603 22.4446C22.347 22.4317 23.579 21.9221 24.499 21.0224C25.419 20.1226 25.9558 18.9023 25.9974 17.6161C26.039 16.33 25.582 15.0775 24.7221 14.1203C24.6061 13.9871 24.4823 13.8609 24.3514 13.7425H24.3728ZM11.0141 20.7782C10.3486 20.7782 9.69812 20.5809 9.14482 20.2112C8.59151 19.8415 8.16025 19.316 7.90559 18.7012C7.65093 18.0864 7.5843 17.4099 7.71413 16.7572C7.84395 16.1045 8.1644 15.505 8.63495 15.0344C9.1055 14.5639 9.70502 14.2434 10.3577 14.1136C11.0104 13.9838 11.6869 14.0504 12.3017 14.3051C12.9165 14.5598 13.442 14.991 13.8117 15.5443C14.1814 16.0976 14.3787 16.7481 14.3787 17.4136C14.3787 18.3059 14.0242 19.1618 13.3932 19.7927C12.7623 20.4237 11.9065 20.7782 11.0141 20.7782ZM16.004 17.4136C16.004 14.9971 14.3787 13.2363 12.283 12.4237C13.4469 11.8822 14.7208 11.6186 16.004 11.6538C17.2795 11.6114 18.547 11.8703 19.7037 12.4094C18.6604 12.7828 17.7516 13.4579 17.0929 14.3489C16.4341 15.2399 16.0551 16.3067 16.004 17.4136ZM20.9939 20.7996C20.3285 20.7996 19.6779 20.6023 19.1246 20.2326C18.5713 19.8629 18.1401 19.3374 17.8854 18.7226C17.6307 18.1078 17.5641 17.4312 17.6939 16.7786C17.8238 16.1259 18.1442 15.5264 18.6148 15.0558C19.0853 14.5853 19.6848 14.2648 20.3375 14.135C20.9902 14.0052 21.6667 14.0718 22.2815 14.3265C22.8963 14.5811 23.4218 15.0124 23.7915 15.5657C24.1612 16.119 24.3585 16.7695 24.3585 17.435C24.3585 18.3273 24.004 19.1831 23.3731 19.8141C22.7421 20.4451 21.8863 20.7996 20.9939 20.7996ZM12.7748 17.4136C12.7748 17.7618 12.6716 18.1023 12.4781 18.3918C12.2846 18.6813 12.0096 18.907 11.6879 19.0403C11.3662 19.1736 11.0121 19.2084 10.6706 19.1405C10.3291 19.0725 10.0153 18.9049 9.76908 18.6586C9.52284 18.4124 9.35515 18.0986 9.28721 17.7571C9.21927 17.4155 9.25414 17.0615 9.3874 16.7398C9.52067 16.4181 9.74634 16.1431 10.0359 15.9496C10.3254 15.7561 10.6659 15.6529 11.0141 15.6529C11.2453 15.6529 11.4743 15.6984 11.6879 15.7869C11.9015 15.8754 12.0956 16.0051 12.2591 16.1686C12.4226 16.3321 12.5523 16.5262 12.6408 16.7398C12.7293 16.9534 12.7748 17.1824 12.7748 17.4136Z" fill="white"/>
<rect x="0.5" y="0.5" width="31" height="31" rx="15.5" stroke="white"/>
</svg>
