<svg xmlns="http://www.w3.org/2000/svg" width="19.463" height="14.277" viewBox="0 0 19.463 14.277">
  <path id="Path_245" data-name="Path 245" d="M20.557,17.29A1.733,1.733,0,0,0,18.962,18.5a2.178,2.178,0,0,0,.372,2.147,1.566,1.566,0,0,0,1.878.425,1.99,1.99,0,0,0,1.059-1.824A1.856,1.856,0,0,0,20.557,17.29Zm3.288-2.126h0l1.568-1.975H21.875A9.971,9.971,0,0,0,15.7,11a10.144,10.144,0,0,0-6.243,2.181H5.99l1.554,1.943h0a4.8,4.8,0,0,0-.61.793,6.135,6.135,0,0,0,.639,7.451,4.417,4.417,0,0,0,6.547-.05L15.7,25.277l1.547-1.935a4.428,4.428,0,0,0,6.72-.077,6.139,6.139,0,0,0,.217-7.68,4.724,4.724,0,0,0-.361-.42Zm-13,7.829a3.533,3.533,0,0,1-3.274-3.744,3.533,3.533,0,0,1,3.274-3.744,3.533,3.533,0,0,1,3.274,3.744A3.533,3.533,0,0,1,10.845,22.993ZM15.7,19.249A5.953,5.953,0,0,0,12.08,13.7,7.209,7.209,0,0,1,15.7,12.84a7.064,7.064,0,0,1,3.6.841,6.188,6.188,0,0,0-3.6,5.568Zm4.856,3.768a3.533,3.533,0,0,1-3.274-3.744,3.533,3.533,0,0,1,3.274-3.744,3.533,3.533,0,0,1,3.274,3.744A3.533,3.533,0,0,1,20.557,23.017Zm-8-3.768a1.849,1.849,0,0,1-1.713,1.959,1.849,1.849,0,0,1-1.713-1.959,1.849,1.849,0,0,1,1.713-1.959A1.849,1.849,0,0,1,12.559,19.249Z" transform="translate(-5.966 -11)" fill="#fff"/>
</svg>
