<svg xmlns="http://www.w3.org/2000/svg" width="19.573" height="15.876" viewBox="0 0 19.573 15.876">
  <path id="Path_39" data-name="Path 39" d="M44.2,17.876A11.316,11.316,0,0,0,55.616,6.458V5.915a8.839,8.839,0,0,0,1.957-2.066A9.027,9.027,0,0,1,55.29,4.5a4.231,4.231,0,0,0,1.74-2.175,9.974,9.974,0,0,1-2.5.979A3.883,3.883,0,0,0,51.592,2a4.085,4.085,0,0,0-4.023,4.023,2.12,2.12,0,0,0,.109.87,11.242,11.242,0,0,1-8.264-4.241,4.164,4.164,0,0,0-.544,2.066,4.32,4.32,0,0,0,1.74,3.371,3.666,3.666,0,0,1-1.849-.544h0a3.974,3.974,0,0,0,3.262,3.915,3.352,3.352,0,0,1-1.087.109,1.85,1.85,0,0,1-.761-.109,4.119,4.119,0,0,0,3.806,2.827,8.21,8.21,0,0,1-5,1.74A3.01,3.01,0,0,1,38,15.919a10.264,10.264,0,0,0,6.2,1.957" transform="translate(-38 -2)" fill="#fff"/>
</svg>
